<svg width="7" height="11" viewBox="0 0 7 11" fill="none" xmlns="http://www.w3.org/2000/svg">
<path d="M1.62739 10.0631L6.80067 5.67167C6.89153 5.59454 6.94238 5.49109 6.94238 5.38337C6.94238 5.27566 6.89153 5.17221 6.80067 5.09507L1.62739 0.701998C1.58506 0.666028 1.53446 0.637438 1.47856 0.617917C1.42267 0.598396 1.36261 0.588338 1.30194 0.588338C1.24127 0.588338 1.18121 0.598396 1.12531 0.617917C1.06941 0.637438 1.01881 0.666028 0.976485 0.701998C0.88941 0.775765 0.840661 0.874791 0.840661 0.977908C0.840661 1.08102 0.88941 1.18005 0.976485 1.25382L5.84129 5.38337L0.976486 9.51211C0.889709 9.58583 0.841149 9.68468 0.841149 9.7876C0.841149 9.89052 0.889709 9.98937 0.976486 10.0631C1.01881 10.0991 1.06941 10.1277 1.12531 10.1472C1.18121 10.1667 1.24127 10.1768 1.30194 10.1768C1.36261 10.1768 1.42267 10.1667 1.47856 10.1472C1.53446 10.1277 1.58506 10.0991 1.62739 10.0631Z" fill="white"/>
</svg>
