<svg width="7" height="11" viewBox="0 0 7 11" fill="none" xmlns="http://www.w3.org/2000/svg">
<path d="M6.09648 0.130515L0.161598 5.16843C0.0573612 5.25692 -0.000976563 5.3756 -0.000976563 5.49918C-0.000976563 5.62275 0.0573612 5.74143 0.161598 5.82992L6.09648 10.8697C6.14503 10.911 6.20309 10.9438 6.26721 10.9662C6.33134 10.9886 6.40024 11.0001 6.46984 11.0001C6.53944 11.0001 6.60834 10.9886 6.67247 10.9662C6.73659 10.9438 6.79465 10.911 6.8432 10.8697C6.9431 10.7851 6.99902 10.6715 6.99902 10.5532C6.99902 10.4349 6.9431 10.3213 6.8432 10.2367L1.26222 5.49918L6.8432 0.762623C6.94276 0.67804 6.99846 0.564637 6.99846 0.446569C6.99846 0.328501 6.94276 0.215098 6.8432 0.130515C6.79465 0.0892491 6.73659 0.0564507 6.67247 0.0340554C6.60834 0.0116602 6.53944 0.00012207 6.46984 0.00012207C6.40024 0.00012207 6.33134 0.0116602 6.26721 0.0340554C6.20309 0.0564507 6.14503 0.0892491 6.09648 0.130515Z" fill="white"/>
</svg>
