<svg width="7" height="11" viewBox="0 0 7 11" fill="none" xmlns="http://www.w3.org/2000/svg">
<path d="M0.901571 10.8697L6.83645 5.83181C6.94069 5.74332 6.99902 5.62464 6.99902 5.50107C6.99902 5.3775 6.94069 5.25882 6.83645 5.17033L0.90157 0.130514C0.853014 0.0892473 0.794961 0.0564495 0.730835 0.0340544C0.666709 0.0116592 0.597811 0.000121676 0.528207 0.000121682C0.458604 0.000121688 0.389705 0.0116592 0.325579 0.0340544C0.261453 0.0564495 0.203399 0.0892473 0.154844 0.130514C0.0549488 0.21514 -0.000976065 0.328745 -0.000976055 0.447042C-0.000976044 0.56534 0.0549489 0.678943 0.154844 0.76357L5.73583 5.50107L0.154845 10.2376C0.0552925 10.3222 -0.000416328 10.4356 -0.000416318 10.5537C-0.000416308 10.6717 0.0552926 10.7851 0.154845 10.8697C0.2034 10.911 0.261454 10.9438 0.32558 10.9662C0.389706 10.9886 0.458605 11.0001 0.528208 11.0001C0.597812 11.0001 0.66671 10.9886 0.730836 10.9662C0.794962 10.9438 0.853015 10.911 0.901571 10.8697Z" fill="white"/>
</svg>
