<svg width="7" height="11" viewBox="0 0 7 11" fill="none" xmlns="http://www.w3.org/2000/svg">
<path d="M5.77544 0.702039L0.602161 5.09346C0.511301 5.1706 0.460449 5.27405 0.460449 5.38176C0.460449 5.48948 0.511301 5.59293 0.602161 5.67006L5.77544 10.0631C5.81777 10.0991 5.86837 10.1277 5.92427 10.1472C5.98017 10.1667 6.04022 10.1768 6.10089 10.1768C6.16157 10.1768 6.22162 10.1667 6.27752 10.1472C6.33342 10.1277 6.38402 10.0991 6.42635 10.0631C6.51342 9.98937 6.56217 9.89035 6.56217 9.78723C6.56217 9.68411 6.51342 9.58509 6.42635 9.51132L1.56154 5.38176L6.42635 1.25303C6.51312 1.1793 6.56168 1.08045 6.56168 0.977535C6.56168 0.874618 6.51312 0.775768 6.42635 0.702039C6.38402 0.666069 6.33342 0.637479 6.27752 0.617958C6.22162 0.598436 6.16157 0.588379 6.10089 0.588379C6.04022 0.588379 5.98017 0.598436 5.92427 0.617958C5.86837 0.637479 5.81777 0.666069 5.77544 0.702039Z" fill="white"/>
</svg>
