<svg width="8" height="8" viewBox="0 0 8 8" fill="none" xmlns="http://www.w3.org/2000/svg">
<path fill-rule="evenodd" clip-rule="evenodd" d="M8.26636e-05 3.99998C8.2652e-05 3.86737 0.0527607 3.74019 0.146529 3.64643C0.240297 3.55266 0.367474 3.49998 0.500083 3.49998L6.29308 3.49998L4.14608 1.35398C4.09959 1.30749 4.06272 1.2523 4.03756 1.19156C4.0124 1.13082 3.99945 1.06572 3.99945 0.999979C3.99945 0.934235 4.0124 0.869135 4.03756 0.808395C4.06272 0.747656 4.09959 0.692467 4.14608 0.645979C4.19257 0.599491 4.24776 0.562614 4.3085 0.537455C4.36924 0.512297 4.43434 0.499348 4.50008 0.499348C4.56583 0.499348 4.63093 0.512296 4.69167 0.537455C4.75241 0.562614 4.80759 0.599491 4.85408 0.645979L7.85408 3.64598C7.90065 3.69242 7.93759 3.7476 7.9628 3.80835C7.988 3.86909 8.00098 3.93421 8.00098 3.99998C8.00098 4.06575 7.988 4.13087 7.9628 4.19161C7.93759 4.25236 7.90065 4.30753 7.85408 4.35398L4.85408 7.35398C4.7602 7.44787 4.63286 7.50061 4.50008 7.50061C4.36731 7.50061 4.23997 7.44787 4.14608 7.35398C4.0522 7.26009 3.99945 7.13275 3.99945 6.99998C3.99945 6.8672 4.0522 6.73987 4.14608 6.64598L6.29308 4.49998L0.500083 4.49998C0.367474 4.49998 0.240297 4.4473 0.146529 4.35353C0.0527608 4.25976 8.26752e-05 4.13259 8.26636e-05 3.99998Z" fill="#0050F4"/>
</svg>
