<svg width="16" height="16" viewBox="0 0 16 16" fill="none" xmlns="http://www.w3.org/2000/svg">
<g clip-path="url(#clip0_114_1058)">
<path d="M9.60923 1.64881C11.6413 1.64881 13.0539 3.60011 12.8148 5.52952C12.6162 7.12389 11.2002 8.3765 9.59239 8.3765H7.68992V10.2285H9.59239C11.835 10.2285 13.825 8.70817 14.4597 6.56662C14.6567 5.9016 14.7173 5.19618 14.6314 4.50757C14.5742 4.04795 14.4547 3.59674 14.2779 3.1691C13.6953 1.75993 12.5101 0.620124 11.0016 0.199222C9.87526 -0.113929 8.64789 -0.0583698 7.5586 0.367583C6.98954 0.589819 6.45754 0.911387 6.00126 1.31714C5.72178 1.56463 5.5063 1.85252 5.30762 2.16399H7.87177C8.36843 1.84916 8.9762 1.64881 9.60923 1.64881Z" fill="#2D4874"/>
<path d="M5.60222 7.75548V10.557C6.02144 10.658 6.54504 10.8011 7.11747 10.9981V7.75546C9.36845 7.41704 11.1346 5.59371 11.3854 3.31579C11.4191 3.01779 11.1834 2.75684 10.8837 2.75684H7.42559H5.10893H1.836C1.53463 2.75684 1.30061 3.01779 1.33428 3.31579C1.58514 5.59371 3.34956 7.41706 5.60222 7.75548Z" fill="#2D4874"/>
<path d="M7.84964 16C8.00624 16 8.12409 15.8602 8.09883 15.7054C8.02476 15.2642 7.78737 14.8787 7.45065 14.6127C7.39677 14.5706 7.34121 14.5319 7.28229 14.4948C7.22841 14.4612 7.17115 14.4309 7.11392 14.4022V14.0571C6.58022 13.8349 6.04652 13.7136 5.59868 13.5857V14.4022C5.54144 14.4292 5.48418 14.4612 5.43032 14.4948C5.37139 14.5302 5.31582 14.5706 5.26196 14.6127C4.92524 14.8787 4.68783 15.2642 4.61377 15.7054C4.58852 15.8586 4.70637 16 4.86294 16H7.84964Z" fill="#2D4874"/>
<path d="M5.00966 10.2404V8.38C3.79576 8.42883 3.0752 9.43226 3.0752 10.6579C3.0752 11.4391 3.49441 12.1883 4.15944 12.5974C4.48269 12.7978 4.84803 12.8752 5.21169 12.9661C5.21169 12.9661 5.21169 12.9661 5.21338 12.9661C6.85994 13.3786 8.53345 14.0723 9.83151 15.1851C10.0066 15.335 10.2204 15.4091 10.4342 15.4091C10.6952 15.4091 10.9545 15.2996 11.138 15.0858C11.1599 15.0606 11.1784 15.0353 11.1969 15.0084C11.2272 14.9646 11.2525 14.9191 11.2744 14.872C11.2811 14.8568 11.2878 14.84 11.2946 14.8248C11.3097 14.7878 11.3215 14.7491 11.3316 14.712C11.4158 14.382 11.3131 14.0184 11.037 13.781C9.89382 12.8012 8.5301 12.1025 7.11418 11.6058C6.67308 11.4509 6.22522 11.3145 5.77235 11.2C5.60736 11.1579 5.439 11.1158 5.27232 11.0805C4.5315 10.9172 4.5315 10.3482 5.00966 10.2404Z" fill="#2D4874"/>
</g>
<defs>
<clipPath id="clip0_114_1058">
<rect width="16" height="16" fill="white"/>
</clipPath>
</defs>
</svg>
