<svg width="16" height="16" viewBox="0 0 16 16" fill="none" xmlns="http://www.w3.org/2000/svg">
<path d="M1.32788 8.95165H14.6722C15.2222 8.95165 15.6681 8.50581 15.6681 7.9558C15.6681 7.4058 15.2222 6.95996 14.6722 6.95996H1.32788C0.777875 6.95996 0.332031 7.4058 0.332031 7.9558C0.332 8.50581 0.777875 8.95165 1.32788 8.95165Z" fill="#2D4874"/>
<path d="M8.99584 4.81201C8.70519 4.81201 8.46875 5.04845 8.46875 5.33911V6.02245H12.5481V5.33911C12.5481 5.04845 12.3117 4.81201 12.021 4.81201H8.99584Z" fill="#2D4874"/>
<path d="M2.51418 5.3391C2.51418 4.53151 3.17118 3.87451 3.97877 3.87451H7.00393C7.38824 3.87451 7.73824 4.02351 7.99977 4.26651C8.2613 4.02351 8.6113 3.87451 8.99561 3.87451H12.0208C12.8284 3.87451 13.4854 4.53151 13.4854 5.3391V6.02245H15.0069V2.7937C15.0069 2.2437 14.561 1.79785 14.0111 1.79785H1.98852C1.43852 1.79785 0.992676 2.2437 0.992676 2.7937V6.02245H2.51418V5.3391Z" fill="#2D4874"/>
<path d="M3.97924 4.81201C3.68859 4.81201 3.45215 5.04845 3.45215 5.33911V6.02245H7.53149V5.33911C7.53149 5.04845 7.29505 4.81201 7.0044 4.81201H3.97924Z" fill="#2D4874"/>
<path d="M0 9.88916V14.2022H0.9375V12.4929H15.0625V14.2022H16V9.88916H0Z" fill="#2D4874"/>
</svg>
