<svg width="20" height="20" viewBox="0 0 20 20" fill="none" xmlns="http://www.w3.org/2000/svg">
<path d="M18.3405 4.77809V7.21247C18.3405 7.17103 18.3241 7.13128 18.2948 7.10198C18.2655 7.07268 18.2257 7.05622 18.1843 7.05622C17.64 7.05405 17.116 7.26231 16.7218 7.63747C16.382 7.96643 15.9275 8.15035 15.4546 8.15035C14.9816 8.15035 14.5272 7.96643 14.1874 7.63747C13.7919 7.26433 13.2687 7.05648 12.7249 7.05648C12.1811 7.05648 11.6579 7.26433 11.2624 7.63747C10.9227 7.9655 10.469 8.14884 9.99678 8.14884C9.52457 8.14884 9.07082 7.9655 8.73115 7.63747C8.33614 7.26454 7.81346 7.05679 7.27022 7.05679C6.72697 7.05679 6.20429 7.26454 5.80928 7.63747C5.46999 7.96623 5.01609 8.15006 4.54365 8.15006C4.07121 8.15006 3.61731 7.96623 3.27803 7.63747C2.88472 7.26278 2.36186 7.05453 1.81865 7.05622C1.77721 7.05622 1.73747 7.07268 1.70817 7.10198C1.67886 7.13128 1.6624 7.17103 1.6624 7.21247V4.77809C1.6624 4.73665 1.67886 4.69691 1.70817 4.66761C1.73747 4.6383 1.77721 4.62184 1.81865 4.62184C2.36186 4.62015 2.88472 4.8284 3.27803 5.20309C3.61731 5.53185 4.07121 5.71569 4.54365 5.71569C5.01609 5.71569 5.46999 5.53185 5.80928 5.20309C6.20429 4.83016 6.72697 4.62241 7.27022 4.62241C7.81346 4.62241 8.33614 4.83016 8.73115 5.20309C9.07082 5.53112 9.52457 5.71446 9.99678 5.71446C10.469 5.71446 10.9227 5.53112 11.2624 5.20309C11.6579 4.82995 12.1811 4.62211 12.7249 4.62211C13.2687 4.62211 13.7919 4.82995 14.1874 5.20309C14.5272 5.53205 14.9816 5.71597 15.4546 5.71597C15.9275 5.71597 16.382 5.53205 16.7218 5.20309C17.116 4.82793 17.64 4.61967 18.1843 4.62184C18.2257 4.62184 18.2655 4.6383 18.2948 4.66761C18.3241 4.69691 18.3405 4.73665 18.3405 4.77809ZM16.9155 14.7968C17.0823 14.6322 17.28 14.5022 17.4972 14.4143C17.7144 14.3263 17.9468 14.2822 18.1812 14.2843C18.2226 14.2843 18.2623 14.2679 18.2916 14.2386C18.3209 14.2093 18.3374 14.1695 18.3374 14.1281V11.4625C18.3374 11.421 18.3209 11.3813 18.2916 11.352C18.2623 11.3227 18.2226 11.3062 18.1812 11.3062C17.6397 11.3015 17.1172 11.5051 16.7218 11.875C16.382 12.2039 15.9275 12.3878 15.4546 12.3878C14.9816 12.3878 14.5272 12.2039 14.1874 11.875C13.7912 11.4982 13.2654 11.2881 12.7187 11.2881C12.1719 11.2881 11.6461 11.4982 11.2499 11.875C10.9102 12.203 10.4565 12.3863 9.98428 12.3863C9.51207 12.3863 9.05832 12.203 8.71865 11.875C8.32364 11.502 7.80096 11.2943 7.25772 11.2943C6.71447 11.2943 6.19179 11.502 5.79678 11.875C5.45749 12.2037 5.00359 12.3876 4.53115 12.3876C4.05871 12.3876 3.60481 12.2037 3.26553 11.875C2.87222 11.5003 2.34936 11.292 1.80615 11.2937C1.76471 11.2937 1.72497 11.3102 1.69567 11.3395C1.66636 11.3688 1.6499 11.4085 1.6499 11.45V14.1187C1.6499 14.1602 1.66636 14.1999 1.69567 14.2292C1.72497 14.2585 1.76471 14.275 1.80615 14.275C2.0405 14.2726 2.27299 14.3167 2.49022 14.4046C2.70744 14.4926 2.9051 14.6227 3.07178 14.7875C3.46679 15.1604 3.98947 15.3682 4.53272 15.3682C5.07596 15.3681 5.59864 15.1604 5.99365 14.7875C6.33332 14.4594 6.78707 14.2761 7.25928 14.2761C7.73148 14.2761 8.18524 14.4594 8.5249 14.7875C8.91992 15.1604 9.4426 15.3682 9.98584 15.3682C10.5291 15.3682 11.0518 15.1604 11.4468 14.7875C11.7866 14.4585 12.241 14.2746 12.714 14.2746C13.1869 14.2746 13.6413 14.4585 13.9812 14.7875C14.3767 15.1606 14.8999 15.3685 15.4437 15.3685C15.9874 15.3685 16.5106 15.1606 16.9062 14.7875L16.9155 14.7968ZM18.1843 8.03122C17.64 8.02905 17.116 8.2373 16.7218 8.61247C16.382 8.94143 15.9275 9.12535 15.4546 9.12535C14.9816 9.12535 14.5272 8.94143 14.1874 8.61247C13.7919 8.23933 13.2687 8.03148 12.7249 8.03148C12.1811 8.03148 11.6579 8.23933 11.2624 8.61247C10.9227 8.9405 10.469 9.12384 9.99678 9.12384C9.52457 9.12384 9.07082 8.9405 8.73115 8.61247C8.33614 8.23954 7.81346 8.03179 7.27022 8.03179C6.72697 8.03179 6.20429 8.23954 5.80928 8.61247C5.46999 8.94123 5.01609 9.12506 4.54365 9.12506C4.07121 9.12506 3.61731 8.94123 3.27803 8.61247C2.88394 8.23703 2.35982 8.02872 1.81553 8.03122C1.77409 8.03122 1.73434 8.04768 1.70504 8.07698C1.67574 8.10629 1.65928 8.14603 1.65928 8.18747V10.375C1.65928 10.3335 1.67574 10.2938 1.70504 10.2645C1.73434 10.2352 1.77409 10.2187 1.81553 10.2187C2.35874 10.217 2.8816 10.4253 3.2749 10.8C3.61419 11.1287 4.06809 11.3126 4.54053 11.3126C5.01297 11.3126 5.46687 11.1287 5.80615 10.8C6.20117 10.427 6.72385 10.2193 7.26709 10.2193C7.81033 10.2193 8.33301 10.427 8.72803 10.8C9.06769 11.128 9.52145 11.3113 9.99365 11.3113C10.4659 11.3113 10.9196 11.128 11.2593 10.8C11.6548 10.4268 12.178 10.219 12.7218 10.219C13.2655 10.219 13.7887 10.4268 14.1843 10.8C14.5241 11.1289 14.9785 11.3128 15.4515 11.3128C15.9244 11.3128 16.3788 11.1289 16.7187 10.8C17.1129 10.4248 17.6369 10.2165 18.1812 10.2187C18.2226 10.2187 18.2623 10.2352 18.2916 10.2645C18.3209 10.2938 18.3374 10.3335 18.3374 10.375V8.18747C18.3374 8.14656 18.3214 8.10729 18.2927 8.07807C18.2641 8.04886 18.2252 8.03204 18.1843 8.03122Z" fill="#2D4874"/>
</svg>
