<svg width="18" height="18" viewBox="0 0 18 18" fill="none" xmlns="http://www.w3.org/2000/svg">
<g clip-path="url(#clip0_114_1047)">
<path d="M8.03457 7.58848L8.39193 6.60663L7.77089 6.83269C7.71137 6.85435 7.65041 6.86461 7.59054 6.86461C7.37514 6.86461 7.17292 6.73165 7.09494 6.51751C6.99535 6.24382 7.13646 5.9412 7.41012 5.84156L8.86281 5.31281L8.9288 5.13155L8.61862 4.27936L6.38866 5.09098C6.32917 5.11263 6.26821 5.1229 6.20834 5.1229C5.9929 5.1229 5.79072 4.98994 5.71274 4.77577C5.61314 4.50211 5.75426 4.19949 6.02795 4.09985L8.25788 3.28824L7.89718 2.29718L6.32794 2.86833C6.26842 2.88999 6.2075 2.90025 6.14762 2.90025C5.93222 2.90025 5.73 2.76729 5.65203 2.55312C5.55243 2.27946 5.69355 1.97684 5.96724 1.87721L7.53644 1.30606L7.23585 0.480166C7.13193 0.194627 6.86228 0.017334 6.57505 0.017334C6.49521 0.017334 6.414 0.0310449 6.33462 0.0599434L3.19622 1.20224C2.8313 1.33506 2.64318 1.73855 2.776 2.10344L4.77238 7.58844H8.03457V7.58848Z" fill="#2D4874"/>
<path d="M14.906 4.12788L13.4193 3.58679L11.9629 7.58845H13.6465L14.906 4.12792V4.12788Z" fill="#2D4874"/>
<path d="M9.15674 7.58851H10.8403L12.4281 3.22615L10.9414 2.68506L9.15674 7.58851Z" fill="#2D4874"/>
<path d="M11.3022 1.69393L15.2666 3.13682L14.3713 0.247676C14.3235 0.0931641 14.1822 0 14.0349 0C13.9704 0 13.9047 0.0178242 13.8452 0.0561797L11.3022 1.69393Z" fill="#2D4874"/>
<path d="M4.49316 8.64319C4.10483 8.64319 3.79004 8.95798 3.79004 9.34631V15.8906C3.79004 17.0556 4.73444 18 5.89941 18H12.5465C13.7114 18 14.6559 17.0556 14.6559 15.8906V9.34631C14.6559 8.95798 14.3411 8.64319 13.9527 8.64319H4.49316Z" fill="#2D4874"/>
</g>
<defs>
<clipPath id="clip0_114_1047">
<rect width="18" height="18" fill="white"/>
</clipPath>
</defs>
</svg>
