<svg width="16" height="16" viewBox="0 0 16 16" fill="none" xmlns="http://www.w3.org/2000/svg">
<path d="M13.5 2H13V1.5C13 1.36739 12.9473 1.24021 12.8536 1.14645C12.7598 1.05268 12.6326 1 12.5 1C12.3674 1 12.2402 1.05268 12.1464 1.14645C12.0527 1.24021 12 1.36739 12 1.5V2H10V1.5C10 1.36739 9.94732 1.24021 9.85355 1.14645C9.75979 1.05268 9.63261 1 9.5 1C9.36739 1 9.24021 1.05268 9.14645 1.14645C9.05268 1.24021 9 1.36739 9 1.5V2H7V1.5C7 1.36739 6.94732 1.24021 6.85355 1.14645C6.75979 1.05268 6.63261 1 6.5 1C6.36739 1 6.24021 1.05268 6.14645 1.14645C6.05268 1.24021 6 1.36739 6 1.5V2H4V1.5C4 1.36739 3.94732 1.24021 3.85355 1.14645C3.75979 1.05268 3.63261 1 3.5 1C3.36739 1 3.24021 1.05268 3.14645 1.14645C3.05268 1.24021 3 1.36739 3 1.5V2H2.5C2.10218 2 1.72064 2.15804 1.43934 2.43934C1.15804 2.72064 1 3.10218 1 3.5V5H15V3.5C15 3.10218 14.842 2.72064 14.5607 2.43934C14.2794 2.15804 13.8978 2 13.5 2Z" fill="#2D4874"/>
<path d="M1 13.5C1 13.8978 1.15804 14.2794 1.43934 14.5607C1.72064 14.842 2.10218 15 2.5 15H13.5C13.8978 15 14.2794 14.842 14.5607 14.5607C14.842 14.2794 15 13.8978 15 13.5V6H1V13.5ZM11 8.5H12C12.1326 8.5 12.2598 8.55268 12.3536 8.64645C12.4473 8.74021 12.5 8.86739 12.5 9C12.5 9.13261 12.4473 9.25979 12.3536 9.35355C12.2598 9.44732 12.1326 9.5 12 9.5H11C10.8674 9.5 10.7402 9.44732 10.6464 9.35355C10.5527 9.25979 10.5 9.13261 10.5 9C10.5 8.86739 10.5527 8.74021 10.6464 8.64645C10.7402 8.55268 10.8674 8.5 11 8.5ZM11 11H12C12.1326 11 12.2598 11.0527 12.3536 11.1464C12.4473 11.2402 12.5 11.3674 12.5 11.5C12.5 11.6326 12.4473 11.7598 12.3536 11.8536C12.2598 11.9473 12.1326 12 12 12H11C10.8674 12 10.7402 11.9473 10.6464 11.8536C10.5527 11.7598 10.5 11.6326 10.5 11.5C10.5 11.3674 10.5527 11.2402 10.6464 11.1464C10.7402 11.0527 10.8674 11 11 11ZM7.5 8.5H8.5C8.63261 8.5 8.75979 8.55268 8.85355 8.64645C8.94732 8.74021 9 8.86739 9 9C9 9.13261 8.94732 9.25979 8.85355 9.35355C8.75979 9.44732 8.63261 9.5 8.5 9.5H7.5C7.36739 9.5 7.24021 9.44732 7.14645 9.35355C7.05268 9.25979 7 9.13261 7 9C7 8.86739 7.05268 8.74021 7.14645 8.64645C7.24021 8.55268 7.36739 8.5 7.5 8.5ZM7.5 11H8.5C8.63261 11 8.75979 11.0527 8.85355 11.1464C8.94732 11.2402 9 11.3674 9 11.5C9 11.6326 8.94732 11.7598 8.85355 11.8536C8.75979 11.9473 8.63261 12 8.5 12H7.5C7.36739 12 7.24021 11.9473 7.14645 11.8536C7.05268 11.7598 7 11.6326 7 11.5C7 11.3674 7.05268 11.2402 7.14645 11.1464C7.24021 11.0527 7.36739 11 7.5 11ZM4 8.5H5C5.13261 8.5 5.25979 8.55268 5.35355 8.64645C5.44732 8.74021 5.5 8.86739 5.5 9C5.5 9.13261 5.44732 9.25979 5.35355 9.35355C5.25979 9.44732 5.13261 9.5 5 9.5H4C3.86739 9.5 3.74021 9.44732 3.64645 9.35355C3.55268 9.25979 3.5 9.13261 3.5 9C3.5 8.86739 3.55268 8.74021 3.64645 8.64645C3.74021 8.55268 3.86739 8.5 4 8.5ZM4 11H5C5.13261 11 5.25979 11.0527 5.35355 11.1464C5.44732 11.2402 5.5 11.3674 5.5 11.5C5.5 11.6326 5.44732 11.7598 5.35355 11.8536C5.25979 11.9473 5.13261 12 5 12H4C3.86739 12 3.74021 11.9473 3.64645 11.8536C3.55268 11.7598 3.5 11.6326 3.5 11.5C3.5 11.3674 3.55268 11.2402 3.64645 11.1464C3.74021 11.0527 3.86739 11 4 11Z" fill="#2D4874"/>
</svg>
