<svg width="18" height="18" viewBox="0 0 18 18" fill="none" xmlns="http://www.w3.org/2000/svg">
<path d="M15.6082 6.3765C15.5013 6.25613 15.3483 6.1875 15.1874 6.1875H12.3749V4.5C12.3749 2.63869 10.8612 1.125 8.99993 1.125C7.13862 1.125 5.62493 2.63869 5.62493 4.5V6.1875H2.81243C2.65156 6.1875 2.49856 6.25613 2.39168 6.3765C2.28481 6.49688 2.23474 6.65719 2.25331 6.81637L3.21124 14.8731C3.33837 16.0144 4.29968 16.875 5.44775 16.875H12.5521C13.7007 16.875 14.6615 16.0144 14.7881 14.8776L15.7466 6.81637C15.7651 6.65662 15.7151 6.49688 15.6082 6.3765ZM6.74993 4.5C6.74993 3.25912 7.75906 2.25 8.99993 2.25C10.2408 2.25 11.2499 3.25912 11.2499 4.5V6.1875H6.74993V4.5ZM6.18743 8.4375C5.87693 8.4375 5.62493 8.1855 5.62493 7.875C5.62493 7.5645 5.87693 7.3125 6.18743 7.3125C6.49793 7.3125 6.74993 7.5645 6.74993 7.875C6.74993 8.1855 6.49793 8.4375 6.18743 8.4375ZM11.8124 8.4375C11.5019 8.4375 11.2499 8.1855 11.2499 7.875C11.2499 7.5645 11.5019 7.3125 11.8124 7.3125C12.1229 7.3125 12.3749 7.5645 12.3749 7.875C12.3749 8.1855 12.1229 8.4375 11.8124 8.4375Z" fill="#2D4874"/>
</svg>
