<svg width="18" height="18" viewBox="0 0 18 18" fill="none" xmlns="http://www.w3.org/2000/svg">
<g clip-path="url(#clip0_114_872)">
<path d="M14.2734 9C14.2734 11.9081 11.9081 14.2734 9 14.2734C6.09188 14.2734 3.72656 11.9081 3.72656 9C3.72656 6.09188 6.09188 3.72656 9 3.72656C11.9081 3.72656 14.2734 6.09188 14.2734 9Z" fill="#2D4874"/>
<path d="M9.76486 1.59473V2.90535C9.76486 3.26254 9.42736 3.53816 8.99986 3.53816C8.57236 3.53816 8.23486 3.26254 8.23486 2.90535V1.59473C8.23486 1.23754 8.57236 0.961914 8.99986 0.961914C9.42736 0.961914 9.76486 1.23754 9.76486 1.59473Z" fill="#2D4874"/>
<path d="M9.76486 15.0947V16.4054C9.76486 16.7625 9.42736 17.0382 8.99986 17.0382C8.57236 17.0382 8.23486 16.7625 8.23486 16.4054V15.0947C8.23486 14.7375 8.57236 14.4619 8.99986 14.4619C9.42736 14.4619 9.76486 14.7375 9.76486 15.0947Z" fill="#2D4874"/>
<path d="M13.7503 3.26821L13.0219 4.35946C12.915 4.51977 12.7294 4.61258 12.5156 4.61258C12.3525 4.61258 12.181 4.55914 12.0347 4.46071C11.6772 4.22136 11.5538 3.80539 11.7506 3.51008L12.4819 2.41855C12.6703 2.13449 13.1288 2.08949 13.4691 2.31758C13.6606 2.44414 13.7925 2.63258 13.8319 2.83508C13.8628 2.98977 13.8347 3.14446 13.7503 3.26821Z" fill="#2D4874"/>
<path d="M6.24927 14.49L5.51802 15.5815C5.41115 15.7447 5.22552 15.8344 5.01177 15.8344C4.84865 15.8344 4.67962 15.7812 4.53083 15.6825C4.37587 15.5784 4.25774 15.4322 4.19868 15.2719C4.12837 15.0806 4.14552 14.8837 4.24958 14.7319L4.97802 13.6406C5.16646 13.3594 5.6249 13.3116 5.96521 13.5394C6.3224 13.7784 6.44615 14.1947 6.24927 14.49Z" fill="#2D4874"/>
<path d="M5.9652 4.46062C5.81895 4.55906 5.64739 4.61249 5.48426 4.61249C5.27051 4.61249 5.08489 4.51968 4.97801 4.35937L4.24957 3.26812C4.16492 3.14437 4.13707 2.98968 4.16801 2.83499C4.20739 2.63249 4.33929 2.44406 4.53364 2.31749C4.87114 2.0894 5.32957 2.13468 5.52082 2.41846L6.24926 3.50999C6.44613 3.80531 6.32238 4.22156 5.9652 4.46062Z" fill="#2D4874"/>
<path d="M13.801 15.2719C13.7419 15.4322 13.6238 15.5784 13.4663 15.6825C13.32 15.7812 13.1513 15.8344 12.9881 15.8344C12.7744 15.8344 12.5888 15.7447 12.4791 15.5815L11.7506 14.49C11.5538 14.1947 11.6772 13.7787 12.0347 13.5394C12.375 13.3116 12.8335 13.3594 13.0219 13.6406L13.7503 14.7319C13.8544 14.8837 13.8713 15.0806 13.801 15.2719Z" fill="#2D4874"/>
<path d="M4.16525 6.45753C4.02462 6.72753 3.76587 6.90191 3.50712 6.90191C3.4174 6.90191 3.32994 6.88222 3.25119 6.84285L2.08962 6.22972C1.95744 6.16222 1.859 6.03847 1.81119 5.8866C1.74931 5.69253 1.77744 5.46191 1.88431 5.25941C2.07556 4.89378 2.49744 4.71631 2.80119 4.87691L3.96275 5.48722C4.09494 5.55753 4.19337 5.67875 4.24119 5.83063C4.30025 6.02441 4.27494 6.25503 4.16525 6.45753Z" fill="#2D4874"/>
<path d="M16.1158 12.7407C15.9724 13.0107 15.7165 13.1851 15.4577 13.1851C15.3649 13.1851 15.2777 13.1654 15.199 13.1232L14.0374 12.5129C13.7224 12.3469 13.6352 11.9194 13.8349 11.5398C14.0262 11.1741 14.448 10.9998 14.749 11.1598L15.9105 11.7701C16.2255 11.9335 16.3155 12.361 16.1158 12.7407Z" fill="#2D4874"/>
<path d="M16.1748 5.69818C16.1495 5.89787 16.0401 6.06381 15.8795 6.15099L14.7236 6.77537C14.642 6.81756 14.5548 6.84006 14.462 6.84006C14.2061 6.84006 13.9473 6.66849 13.8039 6.40384C13.7139 6.2379 13.6773 6.05227 13.6998 5.88099C13.728 5.68131 13.8348 5.51537 13.998 5.42818L15.1514 4.80381C15.4495 4.64349 15.877 4.81224 16.071 5.17787C16.1608 5.34381 16.1973 5.52662 16.1748 5.69818Z" fill="#2D4874"/>
<path d="M4.00486 12.5719L2.84892 13.1962C2.76736 13.2384 2.68017 13.2609 2.58483 13.2609C2.32889 13.2609 2.07295 13.0894 1.92951 12.8219C1.7242 12.445 1.80829 12.0178 2.12076 11.8488L3.2767 11.2244C3.57483 11.0641 3.99923 11.2328 4.19639 11.5956C4.40142 11.9728 4.31423 12.4003 4.00486 12.5719Z" fill="#2D4874"/>
<path d="M17.0382 8.98875C17.041 9.41654 16.7626 9.75376 16.4082 9.75376L15.0947 9.75685C14.7404 9.75685 14.4619 9.41935 14.4619 8.99157C14.4591 8.56407 14.7376 8.22657 15.0919 8.22657L16.4054 8.22375C16.7597 8.22375 17.0382 8.56125 17.0382 8.98875Z" fill="#2D4874"/>
<path d="M3.53816 9.00844C3.54098 9.43594 3.26254 9.77345 2.90816 9.77345L1.59473 9.77626C1.24035 9.77626 0.961914 9.43876 0.961914 9.01126C0.961914 8.58348 1.23754 8.24626 1.59191 8.24626L2.90535 8.24316C3.26254 8.24345 3.53816 8.58094 3.53816 9.00844Z" fill="#2D4874"/>
</g>
<defs>
<clipPath id="clip0_114_872">
<rect width="18" height="18" fill="white"/>
</clipPath>
</defs>
</svg>
