<svg width="16" height="16" viewBox="0 0 16 16" fill="none" xmlns="http://www.w3.org/2000/svg">
<g clip-path="url(#clip0_114_888)">
<path d="M15.7314 7.28346L13.3066 4.85858V2.05744C13.3066 1.55096 12.8961 1.14049 12.3889 1.14049C11.8828 1.14049 11.4724 1.55096 11.4724 2.05744V3.02446L9.66688 1.21888C8.77421 0.326697 7.22217 0.32828 6.33154 1.22049L0.268439 7.28346C-0.0894796 7.64209 -0.0894796 8.22238 0.268439 8.58046C0.626518 8.93899 1.20793 8.93899 1.56588 8.58046L7.6284 2.51732C7.8259 2.32086 8.174 2.32086 8.37047 2.51674L14.434 8.58046C14.6138 8.75974 14.8482 8.84891 15.0826 8.84891C15.3174 8.84891 15.5522 8.75964 15.7315 8.58046C16.0895 8.22241 16.0895 7.64212 15.7314 7.28346Z" fill="#2D4874"/>
<path d="M8.31836 4.25789C8.14221 4.08184 7.85699 4.08184 7.68136 4.25789L2.34824 9.58943C2.26404 9.6736 2.21631 9.78851 2.21631 9.90843V13.7971C2.21631 14.7095 2.95617 15.4494 3.86864 15.4494H6.50907V11.3602H9.49007V15.4494H12.1305C13.043 15.4494 13.7828 14.7095 13.7828 13.7971V9.90843C13.7828 9.78851 13.7355 9.6736 13.6509 9.58943L8.31836 4.25789Z" fill="#2D4874"/>
</g>
<defs>
<clipPath id="clip0_114_888">
<rect width="16" height="16" fill="white"/>
</clipPath>
</defs>
</svg>
