<svg width="16" height="16" viewBox="0 0 16 16" fill="none" xmlns="http://www.w3.org/2000/svg">
<g clip-path="url(#clip0_114_834)">
<path d="M10.0312 0.46875C10.0312 0.209875 9.82137 0 9.5625 0H6.4375C6.17862 0 5.96875 0.209875 5.96875 0.46875V1.25H10.0312V0.46875Z" fill="#2D4874"/>
<path d="M15.5312 15.0625H15.3438V10.5312C15.3438 10.3537 15.2434 10.1914 15.0846 10.112L13.9375 9.53844V15.0625H13V8.03125C13 7.8745 12.9217 7.72816 12.7913 7.64125L9.97875 5.76625C9.83494 5.67034 9.64997 5.66141 9.49756 5.74297C9.34516 5.82453 9.25 5.98338 9.25 6.15625V15.0625H8.3125V6.15625C8.3125 5.63666 8.59709 5.16156 9.05522 4.91638C9.25859 4.80753 9.48803 4.75 9.71872 4.75C9.99737 4.75 10.2672 4.83169 10.499 4.98631L10.9688 5.2995V2.65625C10.9688 2.39737 10.7589 2.1875 10.5 2.1875H5.5C5.24113 2.1875 5.03125 2.39737 5.03125 2.65625V3.1875H5.8125C6.58791 3.1875 7.21875 3.81834 7.21875 4.59375V15.0625H6.28125V4.59375C6.28125 4.33488 6.07137 4.125 5.8125 4.125H3C2.74113 4.125 2.53125 4.33488 2.53125 4.59375V10.8438H3.625C4.40041 10.8438 5.03125 11.4746 5.03125 12.25V15.0625H4.09375V12.25C4.09375 11.9911 3.88387 11.7812 3.625 11.7812H1.125C0.866125 11.7812 0.65625 11.9911 0.65625 12.25V15.0625H0.46875C0.209875 15.0625 0 15.2724 0 15.5312C0 15.7901 0.209875 16 0.46875 16H15.5312C15.7901 16 16 15.7901 16 15.5312C16 15.2724 15.7901 15.0625 15.5312 15.0625ZM10.6562 9.59375C10.6562 9.33488 10.8661 9.125 11.125 9.125C11.3839 9.125 11.5938 9.33488 11.5938 9.59375V10.5312C11.5938 10.7901 11.3839 11 11.125 11C10.8661 11 10.6562 10.7901 10.6562 10.5312V9.59375ZM10.6562 12.4062C10.6562 12.1474 10.8661 11.9375 11.125 11.9375C11.3839 11.9375 11.5938 12.1474 11.5938 12.4062V13.3438C11.5938 13.6026 11.3839 13.8125 11.125 13.8125C10.8661 13.8125 10.6562 13.6026 10.6562 13.3438V12.4062ZM4.875 9.59375C4.875 9.85262 4.66512 10.0625 4.40625 10.0625C4.14738 10.0625 3.9375 9.85262 3.9375 9.59375V8.65625C3.9375 8.39738 4.14738 8.1875 4.40625 8.1875C4.66512 8.1875 4.875 8.39738 4.875 8.65625V9.59375ZM4.875 6.78125C4.875 7.04012 4.66512 7.25 4.40625 7.25C4.14738 7.25 3.9375 7.04012 3.9375 6.78125V5.84375C3.9375 5.58488 4.14738 5.375 4.40625 5.375C4.66512 5.375 4.875 5.58488 4.875 5.84375V6.78125ZM1.90625 13.9688C1.90625 13.7099 2.11613 13.5 2.375 13.5C2.63387 13.5 2.84375 13.7099 2.84375 13.9688V15.0625H1.90625V13.9688Z" fill="#2D4874"/>
</g>
<defs>
<clipPath id="clip0_114_834">
<rect width="16" height="16" fill="white"/>
</clipPath>
</defs>
</svg>
