<svg width="16" height="16" viewBox="0 0 16 16" fill="none" xmlns="http://www.w3.org/2000/svg">
<path d="M3.66699 7.33337H3.00033C2.81623 7.33337 2.66699 7.48261 2.66699 7.66671V9.00004C2.66699 9.18414 2.81623 9.33337 3.00033 9.33337H3.66699C3.85109 9.33337 4.00033 9.18414 4.00033 9.00004V7.66671C4.00033 7.48261 3.85109 7.33337 3.66699 7.33337Z" fill="#2D4874"/>
<path d="M14.0003 8.99996C14 9.26509 13.8946 9.51927 13.7071 9.70674C13.5196 9.89422 13.2655 9.99967 13.0003 9.99996H12.3337C12.0685 9.99967 11.8143 9.89422 11.6269 9.70674C11.4394 9.51927 11.334 9.26509 11.3337 8.99996V8.66663H4.66699V8.99996C4.6667 9.26509 4.56125 9.51927 4.37378 9.70674C4.1863 9.89422 3.93212 9.99967 3.66699 9.99996H3.00033C2.7352 9.99967 2.48101 9.89422 2.29354 9.70674C2.10607 9.51927 2.00062 9.26509 2.00033 8.99996V8.66663H0.666992V14C0.666992 14.2652 0.772349 14.5195 0.959885 14.7071C1.14742 14.8946 1.40178 15 1.66699 15H14.3337C14.5989 15 14.8532 14.8946 15.0408 14.7071C15.2283 14.5195 15.3337 14.2652 15.3337 14V8.66663H14.0003V8.99996Z" fill="#2D4874"/>
<path d="M14.6668 3.66667H11.3335V2.33333C11.3335 1.97971 11.193 1.64057 10.943 1.39052C10.6929 1.14048 10.3538 1 10.0002 1H6.00016C5.64654 1 5.3074 1.14048 5.05735 1.39052C4.80731 1.64057 4.66683 1.97971 4.66683 2.33333V3.66667H1.3335C1.06837 3.66696 0.814184 3.77241 0.626711 3.95988C0.439238 4.14735 0.333787 4.40154 0.333496 4.66667V7C0.333787 7.26513 0.439238 7.51931 0.626711 7.70679C0.814184 7.89426 1.06837 7.99971 1.3335 8H2.00016V7.66667C2.00045 7.40154 2.1059 7.14736 2.29338 6.95988C2.48085 6.77241 2.73504 6.66696 3.00016 6.66667H3.66683C3.93196 6.66696 4.18614 6.77241 4.37361 6.95988C4.56109 7.14736 4.66654 7.40154 4.66683 7.66667V8H11.3335V7.66667C11.3338 7.40154 11.4392 7.14736 11.6267 6.95988C11.8142 6.77241 12.0684 6.66696 12.3335 6.66667H13.0002C13.2653 6.66696 13.5195 6.77241 13.7069 6.95988C13.8944 7.14736 13.9999 7.40154 14.0002 7.66667V8H14.6668C14.932 7.99971 15.1861 7.89426 15.3736 7.70679C15.5611 7.51931 15.6665 7.26513 15.6668 7V4.66667C15.6665 4.40154 15.5611 4.14735 15.3736 3.95988C15.1861 3.77241 14.932 3.66696 14.6668 3.66667ZM6.00016 3.66667V2.33333H10.0002V3.66667H6.00016Z" fill="#2D4874"/>
<path d="M13 7.33337H12.3333C12.1492 7.33337 12 7.48261 12 7.66671V9.00004C12 9.18414 12.1492 9.33337 12.3333 9.33337H13C13.1841 9.33337 13.3333 9.18414 13.3333 9.00004V7.66671C13.3333 7.48261 13.1841 7.33337 13 7.33337Z" fill="#2D4874"/>
</svg>
