<svg width="18" height="18" viewBox="0 0 18 18" fill="none" xmlns="http://www.w3.org/2000/svg">
<path d="M9 0C7.14416 0.00221173 5.36495 0.747945 4.05268 2.07362C2.7404 3.39929 2.0022 5.19665 2.00001 7.07143C1.99778 8.6035 2.49318 10.094 3.41019 11.3143C3.41019 11.3143 3.6011 11.5682 3.63228 11.6049L9 18L14.3703 11.6016C14.3983 11.5676 14.5898 11.3143 14.5898 11.3143L14.5904 11.3124C15.507 10.0926 16.0022 8.6028 16 7.07143C15.9978 5.19665 15.2596 3.39929 13.9473 2.07362C12.635 0.747945 10.8558 0.00221173 9 0ZM9 9.64286C8.49656 9.64286 8.00442 9.49205 7.58582 9.20949C7.16723 8.92694 6.84097 8.52534 6.64831 8.05547C6.45565 7.5856 6.40524 7.06858 6.50346 6.56977C6.60168 6.07096 6.84411 5.61277 7.20009 5.25315C7.55608 4.89353 8.00964 4.64863 8.50341 4.54941C8.99718 4.45019 9.50898 4.50111 9.9741 4.69574C10.4392 4.89036 10.8368 5.21995 11.1165 5.64282C11.3962 6.06569 11.5455 6.56285 11.5455 7.07143C11.5446 7.75315 11.2762 8.40671 10.799 8.88876C10.3218 9.37082 9.67484 9.64201 9 9.64286Z" fill="#2D4874"/>
</svg>
