<svg width="16" height="16" viewBox="0 0 16 16" fill="none" xmlns="http://www.w3.org/2000/svg">
<g clip-path="url(#clip0_114_839)">
<path d="M0.500122 12.5625H3.78137V11.1562C3.78137 10.8973 3.99121 10.6875 4.25012 10.6875H7.53125V9.28125C7.53125 9.02246 7.74121 8.8125 8 8.8125H11.2812V7.40625C11.2812 7.14746 11.4912 6.9375 11.75 6.9375H15.5C15.7589 6.9375 15.9688 7.14746 15.9688 7.40625V15.5312C15.9688 15.7902 15.7589 16 15.5 16H0.500122C0.241211 16 0.0313721 15.7902 0.0313721 15.5312V13.0312C0.0313721 12.7723 0.241211 12.5625 0.500122 12.5625Z" fill="#2D4874"/>
<path d="M15.0994 0.880362L14.0936 1.42882V5.99999H13.1561V1.9403L10.3436 3.47436V7.87499H9.40614V3.98571L6.59364 5.51977V9.74999H5.65614V6.03112L2.84364 7.56518V11.625H1.90614V8.07653L1.34937 8.38036C1.27809 8.41918 1.20118 8.43761 1.12538 8.43761C0.95936 8.43761 0.798594 8.34923 0.713511 8.19323C0.589487 7.96605 0.673227 7.68127 0.900522 7.55724L14.6504 0.057364C14.8777 -0.0666594 15.1625 0.0170808 15.2864 0.244376C15.4104 0.471671 15.3267 0.756339 15.0994 0.880362Z" fill="#2D4874"/>
</g>
<defs>
<clipPath id="clip0_114_839">
<rect width="16" height="16" fill="white" transform="matrix(-1 0 0 1 16 0)"/>
</clipPath>
</defs>
</svg>
