<svg width="14" height="14" viewBox="0 0 14 14" fill="none" xmlns="http://www.w3.org/2000/svg">
<g clip-path="url(#clip0_114_857)">
<path fill-rule="evenodd" clip-rule="evenodd" d="M2.73438 0H11.2656C11.9904 0.00139478 12.6851 0.289928 13.1976 0.80242C13.7101 1.31491 13.9986 2.0096 14 2.73438V11.2656C13.9986 11.9904 13.7101 12.6851 13.1976 13.1976C12.6851 13.7101 11.9904 13.9986 11.2656 14H2.73438C2.0096 13.9986 1.31491 13.7101 0.80242 13.1976C0.289928 12.6851 0.00139478 11.9904 0 11.2656L0 2.73438C0.00139478 2.0096 0.289928 1.31491 0.80242 0.80242C1.31491 0.289928 2.0096 0.00139478 2.73438 0V0ZM2.89844 10.5889C2.89847 10.7249 2.9525 10.8552 3.04864 10.9514C3.14479 11.0475 3.27517 11.1015 3.41113 11.1016H6.09446C6.16223 11.1023 6.22947 11.0895 6.29229 11.0641C6.3551 11.0386 6.41225 11.001 6.46042 10.9533C6.5086 10.9056 6.54684 10.8489 6.57294 10.7863C6.59904 10.7237 6.61247 10.6566 6.61247 10.5889C6.61247 10.5211 6.59904 10.454 6.57294 10.3914C6.54684 10.3289 6.5086 10.2721 6.46042 10.2245C6.41225 10.1768 6.3551 10.1391 6.29229 10.1137C6.22947 10.0882 6.16223 10.0755 6.09446 10.0762H4.64893L6.55752 8.16758C6.6537 8.07142 6.70773 7.941 6.70775 7.80501C6.70776 7.66901 6.65375 7.53858 6.55759 7.44241C6.50998 7.39479 6.45346 7.35701 6.39125 7.33124C6.32904 7.30546 6.26236 7.29219 6.19502 7.29219C6.05903 7.29217 5.92859 7.34619 5.83242 7.44234L3.92383 9.35121V7.90554C3.92243 7.77048 3.8678 7.64143 3.77181 7.54642C3.67581 7.45141 3.5462 7.39812 3.41113 7.39812C3.27607 7.39812 3.14646 7.45141 3.05046 7.54642C2.95446 7.64143 2.89983 7.77048 2.89844 7.90554V10.5889ZM11.1016 3.41116C11.1015 3.27519 11.0475 3.1448 10.9514 3.04865C10.8552 2.95251 10.7248 2.89847 10.5889 2.89844H7.90554C7.83777 2.89774 7.77053 2.91048 7.70771 2.93593C7.6449 2.96138 7.58775 2.99904 7.53958 3.04672C7.4914 3.09439 7.45316 3.15115 7.42706 3.2137C7.40096 3.27625 7.38753 3.34336 7.38753 3.41113C7.38753 3.47891 7.40096 3.54601 7.42706 3.60857C7.45316 3.67112 7.4914 3.72787 7.53958 3.77555C7.58775 3.82323 7.6449 3.86088 7.70771 3.88633C7.77053 3.91178 7.83777 3.92453 7.90554 3.92383H9.35121L7.44234 5.83242C7.34617 5.92859 7.29214 6.05903 7.29214 6.19504C7.29214 6.33105 7.34617 6.46149 7.44234 6.55766C7.53851 6.65383 7.66895 6.70786 7.80496 6.70786C7.94097 6.70786 8.07141 6.65383 8.16758 6.55766L10.0762 4.64879V6.09448C10.0776 6.22954 10.1322 6.35859 10.2282 6.45361C10.3242 6.54862 10.4538 6.60191 10.5889 6.60191C10.7239 6.60191 10.8535 6.54862 10.9495 6.45361C11.0455 6.35859 11.1002 6.22954 11.1016 6.09448V3.41116Z" fill="#2D4874"/>
</g>
<defs>
<clipPath id="clip0_114_857">
<rect width="14" height="14" fill="white"/>
</clipPath>
</defs>
</svg>
