<svg width="18" height="18" viewBox="0 0 18 18" fill="none" xmlns="http://www.w3.org/2000/svg">
<g clip-path="url(#clip0_114_1081)">
<path d="M17.6994 6.9095L9.44998 0.909949C9.15001 0.684965 8.85001 0.684965 8.55004 0.909949L0.300612 6.9095C-0.299357 7.28449 0.075628 8.25941 0.750581 8.25941H2.25049V16.5088C2.25049 16.9588 2.55045 17.2588 3.00042 17.2588H14.9996C15.4495 17.2588 15.7495 16.9588 15.7495 16.5088V8.25941H17.2494C17.9244 8.25941 18.2993 7.28449 17.6994 6.9095ZM9.00001 15.7589C6.52519 15.7589 4.50033 13.734 4.50033 11.2592C4.50033 8.7844 6.52519 6.75954 9.00001 6.75954C11.4748 6.75954 13.4997 8.7844 13.4997 11.2592C13.4997 13.734 11.4748 15.7589 9.00001 15.7589Z" fill="#2D4874"/>
<path d="M10.1252 10.1342V7.8844H7.87533V10.1342H5.62549V12.3841H7.87533V14.6339H10.1252V12.3841H12.375V10.1342H10.1252Z" fill="#2D4874"/>
</g>
<defs>
<clipPath id="clip0_114_1081">
<rect width="18" height="18" fill="white"/>
</clipPath>
</defs>
</svg>
