<svg width="16" height="16" viewBox="0 0 16 16" fill="none" xmlns="http://www.w3.org/2000/svg">
<g clip-path="url(#clip0_114_917)">
<path d="M3.51095 8.50308C3.51095 8.50604 3.51095 8.50866 3.51095 8.51127C3.79149 9.00599 3.93831 9.56525 3.93699 10.134V10.762C5.13475 10.2936 6.53568 10.0465 7.99989 10.0465C9.9411 10.0465 11.3666 10.4696 12.1171 10.7602L12.1223 10.1336C12.1223 9.45673 12.2819 8.85135 12.5614 8.36054L13.1939 4.19309C13.3573 3.12408 13.0749 2.10157 12.3976 1.31348C11.6795 0.479267 10.5919 0 9.41383 0H6.6462C5.46591 0 4.37642 0.479267 3.66088 1.31459C2.98445 2.10307 2.70165 3.12558 2.86501 4.19386L3.51095 8.50308Z" fill="#2D4874"/>
<path d="M14.7181 7.81396C13.5024 7.81396 12.8665 8.98121 12.8665 10.1336V10.8242C12.8665 11.0813 12.746 11.3224 12.551 11.4523C12.3826 11.5656 12.1683 11.5861 11.9813 11.507C11.3302 11.2394 9.9482 10.7907 7.99995 10.7907C6.57373 10.7907 5.21745 11.0385 4.07773 11.507C3.89075 11.5864 3.67629 11.566 3.5077 11.4526C3.31308 11.3224 3.19217 11.0805 3.19217 10.8246V10.1336C3.19217 8.83128 2.29915 7.81396 1.15758 7.81396C0.529116 7.81396 0.186035 8.55814 0.186035 8.93767C0.186035 9.39908 0.51014 9.91703 0.908651 10.0912C0.949221 10.109 0.993872 10.1284 1.04149 10.1455C1.40316 10.2899 2.07589 10.5581 2.07589 11.3291V12.8249C2.07589 13.3831 2.19607 14.611 3.20037 14.8421C3.19685 14.8555 3.19409 14.8692 3.19217 14.883V15.6271C3.19217 15.8326 3.35878 15.9992 3.56428 15.9992H3.93638C4.14188 15.9992 4.30849 15.8326 4.30849 15.6271V14.8837H11.7503V15.6279C11.7503 15.8334 11.9169 16 12.1224 16H12.4945C12.7 16 12.8666 15.8334 12.8666 15.6279V14.8837C12.8666 14.8733 12.8614 14.8644 12.8607 14.8543C13.7771 14.6795 13.9829 13.6796 13.9829 12.8261V11.3302C13.9829 10.5585 14.6527 10.2903 15.0132 10.1459C15.0597 10.1273 15.1037 10.1086 15.1439 10.0919C15.52 9.92631 15.8136 9.41879 15.8136 8.93841C15.8139 8.55294 15.351 7.81396 14.7181 7.81396Z" fill="#2D4874"/>
</g>
<defs>
<clipPath id="clip0_114_917">
<rect width="16" height="16" fill="white"/>
</clipPath>
</defs>
</svg>
