<svg width="28" height="28" viewBox="0 0 28 28" fill="none" xmlns="http://www.w3.org/2000/svg">
<path d="M14 26.25C21.7315 26.25 28 20.7655 28 14C28 7.2345 21.7315 1.75 14 1.75C6.2685 1.75 0 7.2345 0 14C0 17.08 1.30025 19.8975 3.4475 22.05C3.27775 23.828 2.71775 25.7775 2.09825 27.2405C1.96 27.566 2.22775 27.93 2.576 27.874C6.524 27.2265 8.87075 26.2325 9.891 25.7145C11.2313 26.072 12.6128 26.252 14 26.25ZM14 10.4878C16.912 7.4935 24.1938 12.733 14 19.4688C3.80625 12.7312 11.088 7.4935 14 10.4878Z" fill="white"/>
</svg>
