<svg width="11" height="6" viewBox="0 0 11 6" fill="none" xmlns="http://www.w3.org/2000/svg">
<path d="M6.21834 0.215292C6.34557 0.0917525 6.51488 0.0234548 6.69055 0.0248104C6.86622 0.026166 7.0345 0.0970692 7.15988 0.222558C7.28527 0.348047 7.35795 0.518307 7.3626 0.697411C7.36724 0.876515 7.30348 1.05045 7.18477 1.18253L3.58096 5.77919C3.519 5.84726 3.4442 5.90189 3.36106 5.93981C3.27792 5.97773 3.18813 5.99816 3.09707 5.99988C3.00601 6.0016 2.91554 5.98457 2.83108 5.94982C2.74662 5.91507 2.66989 5.8633 2.6055 5.79761L0.215604 3.36018C0.149049 3.29693 0.0956673 3.22066 0.0586429 3.13591C0.0216186 3.05117 0.00171023 2.95968 0.000105424 2.86692C-0.00149939 2.77415 0.0152323 2.68201 0.0493022 2.59598C0.0833722 2.50995 0.134083 2.43181 0.198408 2.3662C0.262734 2.3006 0.339356 2.24888 0.423705 2.21413C0.508054 2.17938 0.598402 2.16232 0.689358 2.16395C0.780313 2.16559 0.870014 2.18589 0.953109 2.22366C1.0362 2.26142 1.11099 2.31586 1.17301 2.38374L3.06433 4.31176L6.20027 0.235558C6.2059 0.228446 6.21193 0.221679 6.21834 0.215292ZM5.38738 4.95013L6.21834 5.79761C6.28272 5.86316 6.35939 5.9148 6.44376 5.94947C6.52814 5.98414 6.6185 6.00112 6.70945 5.9994C6.80041 5.99768 6.89009 5.9773 6.97315 5.93947C7.05621 5.90163 7.13094 5.84712 7.1929 5.77919L10.7985 1.18253C10.8633 1.11731 10.9145 1.03945 10.9491 0.953592C10.9837 0.867736 11.001 0.775648 11 0.682826C10.9989 0.590004 10.9795 0.498352 10.9429 0.413343C10.9064 0.328334 10.8534 0.251712 10.7871 0.188053C10.7209 0.124393 10.6428 0.0750007 10.5574 0.0428262C10.472 0.0106518 10.3811 -0.00364544 10.2902 0.000788651C10.1993 0.00522274 10.1102 0.0282974 10.0282 0.068634C9.94626 0.108971 9.8731 0.165742 9.81311 0.235558L6.67626 4.31176L6.23821 3.86407L5.38648 4.95013H5.38738Z" fill="#0050F4"/>
</svg>
