<svg width="9" height="8" viewBox="0 0 9 8" fill="none" xmlns="http://www.w3.org/2000/svg">
<path d="M6.96967 0.969986C7.11054 0.835875 7.298 0.761733 7.49249 0.763205C7.68698 0.764677 7.87329 0.841647 8.01212 0.977874C8.15094 1.1141 8.23141 1.29893 8.23655 1.49336C8.24169 1.68779 8.1711 1.87661 8.03967 2.01999L4.04967 7.00999C3.98106 7.08389 3.89825 7.14319 3.8062 7.18435C3.71415 7.22552 3.61474 7.2477 3.51392 7.24956C3.4131 7.25143 3.31294 7.23295 3.21943 7.19522C3.12591 7.15749 3.04097 7.10129 2.96967 7.02999L0.323669 4.38399C0.249983 4.31532 0.19088 4.23252 0.149888 4.14052C0.108896 4.04853 0.0868544 3.94921 0.0850777 3.84851C0.0833009 3.74781 0.101826 3.64778 0.139547 3.55439C0.177268 3.461 0.233412 3.37617 0.304631 3.30495C0.37585 3.23373 0.460684 3.17758 0.554072 3.13986C0.64746 3.10214 0.747489 3.08362 0.848192 3.08539C0.948895 3.08717 1.04821 3.10921 1.14021 3.15021C1.23221 3.1912 1.31501 3.2503 1.38367 3.32399L3.47767 5.41699L6.95067 0.991987C6.95692 0.984288 6.9636 0.976943 6.97067 0.969986H6.96967Z" fill="white"/>
</svg>
