<svg width="24" height="24" viewBox="0 0 24 24" fill="none" xmlns="http://www.w3.org/2000/svg">
<path d="M23.7798 19.2803L16.4995 12L23.7798 4.71974C23.9193 4.57853 23.9975 4.38803 23.9975 4.18954C23.9975 3.99105 23.9193 3.80055 23.7798 3.65934L20.3407 0.220191C20.2711 0.150399 20.1885 0.0950219 20.0975 0.0572363C20.0065 0.0194507 19.909 0 19.8105 0C19.7119 0 19.6144 0.0194507 19.5234 0.0572363C19.4324 0.0950219 19.3498 0.150399 19.2803 0.220191L12 7.50045L4.71974 0.220191C4.5791 0.0796016 4.38839 0.000623065 4.18954 0.000623065C3.99069 0.000623065 3.79997 0.0796016 3.65934 0.220191L0.220191 3.65934C0.150399 3.72888 0.0950219 3.81151 0.0572363 3.90249C0.0194507 3.99347 0 4.09102 0 4.18954C0 4.28806 0.0194507 4.38561 0.0572363 4.47659C0.0950219 4.56757 0.150399 4.6502 0.220191 4.71974L7.50045 12L0.220191 19.2803C0.0796016 19.4209 0.000623065 19.6116 0.000623065 19.8105C0.000623065 20.0093 0.0796016 20.2 0.220191 20.3407L3.65934 23.7798C3.72888 23.8496 3.81151 23.905 3.90249 23.9428C3.99347 23.9805 4.09102 24 4.18954 24C4.28806 24 4.38561 23.9805 4.47659 23.9428C4.56757 23.905 4.6502 23.8496 4.71974 23.7798L12 16.4995L19.2803 23.7798C19.4209 23.9204 19.6116 23.9994 19.8105 23.9994C20.0093 23.9994 20.2 23.9204 20.3407 23.7798L23.7798 20.3407C23.8496 20.2711 23.905 20.1885 23.9428 20.0975C23.9805 20.0065 24 19.909 24 19.8105C24 19.7119 23.9805 19.6144 23.9428 19.5234C23.905 19.4324 23.8496 19.3498 23.7798 19.2803Z" fill="#2D4874"/>
</svg>
