<svg width="20" height="19" viewBox="0 0 20 19" fill="none" xmlns="http://www.w3.org/2000/svg">
<g clip-path="url(#clip0_180_43)">
<path d="M10.0001 0.0234375H9.99551C4.949 0.0234375 0.845215 4.12837 0.845215 9.17602C0.845215 11.1781 1.49047 13.0338 2.58764 14.5406L1.447 17.9408L4.96502 16.8161C6.41227 17.7749 8.13868 18.3286 10.0001 18.3286C15.0466 18.3286 19.1504 14.2225 19.1504 9.17602C19.1504 4.12952 15.0466 0.0234375 10.0001 0.0234375Z" fill="#4CAF50"/>
<path d="M15.3255 12.9481C15.1047 13.5717 14.2284 14.0888 13.5293 14.2398C13.0511 14.3416 12.4264 14.4228 10.3236 13.5511C7.63393 12.4367 5.9018 9.70355 5.7668 9.52622C5.63752 9.34889 4.67993 8.07897 4.67993 6.76557C4.67993 5.45218 5.34693 4.81264 5.61578 4.53807C5.83659 4.31268 6.20155 4.20972 6.55163 4.20972C6.6649 4.20972 6.76672 4.21544 6.85825 4.22001C7.1271 4.23145 7.2621 4.24747 7.43943 4.67192C7.66024 5.20392 8.19795 6.51731 8.26202 6.65231C8.32723 6.78731 8.39245 6.97036 8.30092 7.14769C8.21511 7.33074 8.13961 7.41197 8.00461 7.56757C7.8696 7.72316 7.74147 7.84214 7.60647 8.00918C7.48291 8.15447 7.34333 8.31007 7.49893 8.57893C7.65452 8.84206 8.19223 9.71956 8.98393 10.4243C10.0056 11.3338 10.8339 11.6244 11.1302 11.748C11.351 11.8395 11.6142 11.8178 11.7755 11.6462C11.9803 11.4254 12.2331 11.0593 12.4905 10.6989C12.6736 10.4403 12.9047 10.4083 13.1472 10.4998C13.3943 10.5856 14.702 11.232 14.9709 11.3659C15.2397 11.5009 15.417 11.565 15.4823 11.6782C15.5463 11.7915 15.5463 12.3235 15.3255 12.9481Z" fill="#FAFAFA"/>
</g>
<defs>
<clipPath id="clip0_180_43">
<rect width="18.3052" height="18.3052" fill="white" transform="translate(0.845215 0.0234375)"/>
</clipPath>
</defs>
</svg>
