<svg width="19" height="19" viewBox="0 0 19 19" fill="none" xmlns="http://www.w3.org/2000/svg">
<g clip-path="url(#clip0_180_47)">
<path d="M9.32723 0.0234375H9.32266C4.27615 0.0234375 0.172363 4.12837 0.172363 9.17602C0.172363 11.1781 0.81762 13.0338 1.91479 14.5406L0.774146 17.9408L4.29217 16.8161C5.73942 17.7749 7.46583 18.3286 9.32723 18.3286C14.3737 18.3286 18.4775 14.2225 18.4775 9.17602C18.4775 4.12952 14.3737 0.0234375 9.32723 0.0234375Z" fill="#5F41E1"/>
<path d="M14.6527 12.9481C14.4319 13.5717 13.5555 14.0888 12.8565 14.2398C12.3783 14.3416 11.7536 14.4228 9.65079 13.5511C6.96107 12.4367 5.22895 9.70355 5.09395 9.52622C4.96467 9.34889 4.00708 8.07897 4.00708 6.76557C4.00708 5.45218 4.67407 4.81264 4.94293 4.53807C5.16374 4.31268 5.5287 4.20972 5.87878 4.20972C5.99205 4.20972 6.09387 4.21544 6.18539 4.22001C6.45425 4.23145 6.58925 4.24747 6.76658 4.67192C6.98739 5.20392 7.5251 6.51731 7.58917 6.65231C7.65438 6.78731 7.71959 6.97036 7.62807 7.14769C7.54226 7.33074 7.46675 7.41197 7.33175 7.56757C7.19675 7.72316 7.06862 7.84214 6.93362 8.00918C6.81006 8.15447 6.67048 8.31007 6.82607 8.57893C6.98167 8.84206 7.51938 9.71956 8.31108 10.4243C9.33274 11.3338 10.161 11.6244 10.4574 11.748C10.6782 11.8395 10.9413 11.8178 11.1026 11.6462C11.3074 11.4254 11.5602 11.0593 11.8177 10.6989C12.0007 10.4403 12.2318 10.4083 12.4744 10.4998C12.7215 10.5856 14.0292 11.232 14.298 11.3659C14.5669 11.5009 14.7442 11.565 14.8094 11.6782C14.8735 11.7915 14.8735 12.3235 14.6527 12.9481Z" fill="#FAFAFA"/>
</g>
<defs>
<clipPath id="clip0_180_47">
<rect width="18.3052" height="18.3052" fill="white" transform="translate(0.172363 0.0234375)"/>
</clipPath>
</defs>
</svg>
