<svg width="22" height="22" viewBox="0 0 22 22" fill="none" xmlns="http://www.w3.org/2000/svg">
<path d="M12.0845 1.68591C11.4199 1.27137 10.5802 1.27136 9.91557 1.68591L2.35305 6.40296C2.26078 6.46051 2.17407 6.52469 2.09332 6.59468L9.52534 13.2304C9.53002 13.2344 9.53462 13.2386 9.53923 13.2428L10.5422 14.1382C10.803 14.3712 11.1971 14.3712 11.4579 14.1382L12.4608 13.2428C12.4654 13.2386 12.47 13.2344 12.4747 13.2304L19.9067 6.59468C19.826 6.52469 19.7393 6.46051 19.647 6.40296L12.0845 1.68591Z" fill="#92A1B8" fill-opacity="0.47"/>
<path d="M12.925 14.6717L12.3736 15.1639C11.5912 15.8626 10.4089 15.8626 9.62635 15.1639L9.07498 14.6717L2.60468 20.4487C2.85877 20.562 3.14031 20.625 3.43748 20.625H18.5625C18.8596 20.625 19.1412 20.562 19.3952 20.4487L12.925 14.6717Z" fill="#92A1B8" fill-opacity="0.47"/>
<path d="M20.3954 19.4983L13.9573 13.75L20.5956 7.82293C20.615 7.93767 20.625 8.05482 20.625 8.17321V18.5438C20.625 18.8868 20.5423 19.2117 20.3954 19.4983Z" fill="#92A1B8" fill-opacity="0.47"/>
<path d="M1.60458 19.4983L8.04272 13.75L1.40441 7.82293C1.38499 7.93767 1.375 8.05482 1.375 8.17321V18.5438C1.375 18.8868 1.45771 19.2117 1.60458 19.4983Z" fill="#92A1B8" fill-opacity="0.47"/>
</svg>
