<svg width="20" height="20" viewBox="0 0 20 20" fill="none" xmlns="http://www.w3.org/2000/svg">
<g clip-path="url(#clip0_41_76)">
<path d="M19.1374 13.5968C19.5473 13.074 19.7438 12.5136 19.7187 11.9364C19.6936 11.3007 19.4092 10.803 19.175 10.4977C19.4469 9.82016 19.5514 8.75366 18.6439 7.92555C17.9789 7.31911 16.8496 7.04726 15.2854 7.12254C14.1855 7.17273 13.2654 7.37767 13.2277 7.38603H13.2235C13.0144 7.42367 12.7928 7.46968 12.5669 7.51987C12.5502 7.2522 12.5962 6.5872 13.0897 5.08992C13.6752 3.30824 13.6418 1.94479 12.981 1.03304C12.2867 0.0752824 11.1784 0 10.8522 0C10.5385 0 10.2499 0.129653 10.045 0.368047C9.58072 0.90757 9.63509 1.90297 9.69364 2.36303C9.14157 3.84358 7.5941 7.47386 6.28503 8.48181C6.25994 8.49854 6.23902 8.51945 6.21811 8.54036C5.83334 8.94605 5.57403 9.38519 5.39837 9.76997C5.15161 9.63614 4.8714 9.56085 4.57027 9.56085H2.01903C1.05709 9.56085 0.279175 10.343 0.279175 11.3007V18.097C0.279175 19.059 1.06127 19.8369 2.01903 19.8369H4.57027C4.9425 19.8369 5.28963 19.7198 5.57403 19.519L6.55688 19.6361C6.70745 19.657 9.38415 19.9958 12.132 19.9414C12.6297 19.9791 13.0981 20 13.533 20C14.2817 20 14.9341 19.9414 15.4778 19.8243C16.7576 19.5525 17.6317 19.0088 18.0751 18.21C18.4138 17.5993 18.4138 16.9929 18.3595 16.6081C19.1918 15.8553 19.3381 15.023 19.3089 14.4375C19.2921 14.0987 19.2169 13.8101 19.1374 13.5968ZM2.01903 18.7077C1.68026 18.7077 1.40841 18.4316 1.40841 18.097V11.2965C1.40841 10.9578 1.68444 10.6859 2.01903 10.6859H4.57027C4.90904 10.6859 5.18089 10.9619 5.18089 11.2965V18.0928C5.18089 18.4316 4.90485 18.7035 4.57027 18.7035H2.01903V18.7077ZM18.0667 13.1075C17.8911 13.2915 17.8576 13.5717 17.9914 13.7892C17.9914 13.7934 18.1629 14.0862 18.1838 14.4877C18.2131 15.0355 17.9496 15.5207 17.3975 15.9348C17.201 16.0853 17.1215 16.3446 17.2051 16.5788C17.2051 16.583 17.385 17.1351 17.0922 17.6579C16.812 18.1598 16.1888 18.5194 15.2436 18.7202C14.4866 18.8833 13.4578 18.9126 12.1947 18.8122C12.178 18.8122 12.157 18.8122 12.1361 18.8122C9.44689 18.8708 6.72836 18.5194 6.69908 18.5153H6.6949L6.27248 18.4651C6.29758 18.348 6.31012 18.2225 6.31012 18.097V11.2965C6.31012 11.1167 6.28085 10.941 6.23066 10.7779C6.30594 10.4977 6.51506 9.87453 7.00858 9.34337C8.88645 7.85445 10.7225 2.83145 10.802 2.61397C10.8354 2.52614 10.8438 2.42995 10.8271 2.33375C10.756 1.86533 10.7811 1.29235 10.8814 1.12087C11.1031 1.12505 11.7012 1.18779 12.0609 1.68549C12.4875 2.2752 12.4707 3.32915 12.0107 4.72606C11.308 6.85487 11.2495 7.97574 11.8057 8.46926C12.0818 8.71602 12.4498 8.72857 12.7175 8.63237C12.9726 8.57382 13.2152 8.52363 13.4452 8.48599C13.4619 8.48181 13.4829 8.47762 13.4996 8.47344C14.7836 8.19322 17.0839 8.02175 17.8827 8.74948C18.5602 9.36846 18.0793 10.1882 18.0249 10.276C17.8701 10.5102 17.9161 10.8156 18.1253 11.0038C18.1294 11.0079 18.5686 11.422 18.5895 11.9783C18.6062 12.3505 18.4306 12.7311 18.0667 13.1075Z" fill="white"/>
</g>
<defs>
<clipPath id="clip0_41_76">
<rect width="20" height="20" fill="white"/>
</clipPath>
</defs>
</svg>
