<svg width="20" height="20" viewBox="0 0 20 20" fill="none" xmlns="http://www.w3.org/2000/svg">
<g clip-path="url(#clip0_41_64)">
<path d="M1.85956 17.9059C2.01651 18.0774 2.25996 18.1399 2.48011 18.0651L4.98855 17.2134L6.03723 19.646C6.1295 19.86 6.33986 19.9991 6.57291 20H6.57533C6.80744 20 7.01775 19.863 7.11147 19.6504L9.06626 15.2164C9.37236 15.254 9.68389 15.2737 9.99998 15.2737C10.3161 15.2737 10.6276 15.254 10.9337 15.2164L12.8885 19.6504C12.9822 19.863 13.1925 20 13.4247 20H13.4271C13.6602 19.9991 13.8705 19.86 13.9628 19.646L15.0115 17.2134L17.5199 18.0651C17.7399 18.1399 17.9835 18.0774 18.1405 17.9059C18.2975 17.7345 18.3383 17.4865 18.2444 17.2738L16.0441 12.2865C17.0302 11.0024 17.6173 9.39677 17.6173 7.65635C17.6173 3.43462 14.2002 0 10 0C5.79985 0 2.38273 3.43462 2.38273 7.65635C2.38273 9.39677 2.96989 11.0024 3.95592 12.2865L1.75565 17.2738C1.66182 17.4865 1.70257 17.7345 1.85956 17.9059ZM16.6339 16.5267L14.876 15.9297C14.5867 15.8315 14.2705 15.9721 14.1495 16.2526L13.4187 17.9479L12.1087 14.9765C13.2704 14.6413 14.3186 14.0364 15.1814 13.2344L16.6339 16.5267ZM3.55462 7.65635C3.55462 4.0808 6.44603 1.17189 10 1.17189C13.554 1.17189 16.4454 4.0808 16.4454 7.65635C16.4454 11.2103 13.554 14.1018 10 14.1018C6.44603 14.1018 3.55462 11.2103 3.55462 7.65635ZM4.81858 13.2344C5.68141 14.0364 6.72963 14.6414 7.89132 14.9765L6.58134 17.9479L5.85055 16.2526C5.72957 15.972 5.41336 15.8315 5.1241 15.9297L3.36614 16.5266L4.81858 13.2344Z" fill="white"/>
<path d="M7.69863 8.40417L7.356 10.4016C7.31831 10.6214 7.40866 10.8436 7.58909 10.9747C7.76921 11.1055 8.00843 11.1232 8.20617 11.0193L9.99999 10.0762L11.7938 11.0193C11.9912 11.1231 12.2305 11.1058 12.4108 10.9747C12.5913 10.8436 12.6817 10.6214 12.644 10.4016L12.3014 8.40417L13.7526 6.98958C13.9123 6.83392 13.9698 6.60106 13.9008 6.38895C13.8319 6.17684 13.6486 6.02223 13.4278 5.99016L11.4223 5.69874L10.5254 3.88145C10.4267 3.68145 10.223 3.55481 9.99999 3.55481C9.77697 3.55481 9.57326 3.68141 9.47455 3.88145L8.57766 5.69874L6.57213 5.99016C6.35142 6.02223 6.16802 6.17684 6.09911 6.38895C6.03016 6.60106 6.08767 6.83392 6.24736 6.98962L7.69863 8.40417ZM9.05103 6.81411C9.24189 6.78638 9.40685 6.66653 9.4922 6.49356L9.99999 5.46468L10.5078 6.49356C10.5931 6.66649 10.7581 6.78638 10.9489 6.81411L12.0844 6.97911L11.2628 7.77998C11.1247 7.9146 11.0617 8.10854 11.0943 8.29862L11.2882 9.4295L10.2726 8.89559C10.102 8.80586 9.89803 8.80582 9.72733 8.89559L8.71173 9.4295L8.90567 8.29862C8.93825 8.10854 8.87524 7.9146 8.73716 7.77998L7.9155 6.97911L9.05103 6.81411Z" fill="white"/>
</g>
<defs>
<clipPath id="clip0_41_64">
<rect width="20" height="20" fill="white"/>
</clipPath>
</defs>
</svg>
