<svg width="20" height="20" viewBox="0 0 20 20" fill="none" xmlns="http://www.w3.org/2000/svg">
<g clip-path="url(#clip0_41_69)">
<path d="M17.1759 6.07503H11.9403V2.34034C11.9403 1.73127 11.7034 1.16127 11.275 0.737212C10.8459 0.308149 10.2766 0.0718994 9.67157 0.0718994H2.47157C1.22063 0.0718994 0.20282 1.08971 0.20282 2.34065V7.14065C0.20282 8.39159 1.22063 9.4094 2.47157 9.4094H2.60282V10.7407C2.60282 11.1788 2.86438 11.5678 3.26876 11.7316C3.39907 11.7841 3.53438 11.8097 3.66844 11.8097C3.94844 11.8097 4.22126 11.6988 4.42094 11.4916L5.94532 9.97565V14.436C5.94532 15.8813 7.12126 17.0572 8.56657 17.0572H12.3763L14.9022 19.5694C15.1294 19.8038 15.4341 19.9285 15.7456 19.9285C15.8944 19.9285 16.0444 19.9 16.1881 19.8419C16.6372 19.6603 16.9269 19.2278 16.9269 18.741V17.0572H17.1756C18.6209 17.0572 19.7969 15.8813 19.7969 14.436V8.69627C19.7972 7.25096 18.6213 6.07503 17.1759 6.07503ZM5.94751 8.65159L3.75344 10.8332C3.71532 10.8728 3.67063 10.8832 3.62032 10.8622C3.58376 10.8475 3.54032 10.8144 3.54032 10.7403V8.94034C3.54032 8.68128 3.33063 8.47159 3.07157 8.47159H2.47157C1.73751 8.47159 1.14032 7.8744 1.14032 7.14034V2.34034C1.14032 1.60627 1.73751 1.00909 2.47157 1.00909H9.67157C10.0259 1.00909 10.36 1.14784 10.6138 1.40159C10.8647 1.65002 11.0028 1.98346 11.0028 2.34034V6.07503H8.56657C7.86782 6.07503 7.21001 6.34815 6.71407 6.84378C6.22907 7.32877 5.95907 7.9694 5.94751 8.65159ZM18.8597 14.4357C18.8597 15.3641 18.1044 16.1194 17.1759 16.1194H16.4584C16.1997 16.1194 15.9897 16.3294 15.9897 16.5882V18.7407C15.9897 18.8941 15.8825 18.9544 15.8366 18.9728C15.7919 18.9907 15.6769 19.0213 15.5697 18.9107L12.9006 16.256C12.8128 16.1688 12.6941 16.1194 12.57 16.1194H8.56657C7.63813 16.1194 6.88282 15.3641 6.88282 14.4357V8.69627C6.88282 8.24753 7.05844 7.82534 7.37688 7.5069C7.69563 7.18815 8.11813 7.01253 8.56657 7.01253H17.1759C18.1044 7.01253 18.8597 7.76784 18.8597 8.69627V14.4357Z" fill="white"/>
<path d="M9.96939 10.882C9.58814 10.882 9.27783 11.1926 9.27783 11.5735C9.27783 11.9545 9.58846 12.2651 9.96939 12.2651C10.351 12.2651 10.6616 11.9545 10.6616 11.5735C10.6616 11.1926 10.351 10.882 9.96939 10.882Z" fill="white"/>
<path d="M12.8709 10.882C12.4897 10.882 12.1794 11.1926 12.1794 11.5735C12.1794 11.9545 12.49 12.2651 12.8709 12.2651C13.2525 12.2651 13.5631 11.9545 13.5631 11.5735C13.5631 11.1926 13.2528 10.882 12.8709 10.882Z" fill="white"/>
<path d="M15.7728 10.882C15.3916 10.882 15.0812 11.1926 15.0812 11.5735C15.0812 11.9545 15.3919 12.2651 15.7728 12.2651C16.1544 12.2651 16.465 11.9545 16.465 11.5735C16.465 11.1926 16.1544 10.882 15.7728 10.882Z" fill="white"/>
</g>
<defs>
<clipPath id="clip0_41_69">
<rect width="20" height="20" fill="white"/>
</clipPath>
</defs>
</svg>
