<svg width="14" height="14" viewBox="0 0 14 14" fill="none" xmlns="http://www.w3.org/2000/svg">
<g clip-path="url(#clip0_106_1018)">
<path d="M2.43062 4.47221L4.66673 5.11776L7.12451 3.33276L3.59729 3.43387C3.56275 3.43576 3.52928 3.44647 3.50006 3.46499L2.38395 4.10665C2.34924 4.12589 2.32109 4.1551 2.30315 4.1905C2.28521 4.22591 2.27831 4.26588 2.28334 4.30525C2.28836 4.34463 2.30508 4.38158 2.33134 4.41135C2.3576 4.44111 2.39218 4.46231 2.43062 4.47221Z" fill="#2D4874"/>
<path d="M13.4244 2.47336L10.9744 1.94447C10.7683 1.89974 10.5551 1.89986 10.3491 1.94482C10.1431 1.98977 9.94918 2.07852 9.7805 2.20503L2.37995 7.58336L0.602726 7.50558C0.500929 7.50212 0.400616 7.53073 0.315952 7.58735C0.231288 7.64398 0.16655 7.72577 0.13088 7.82118C0.0952106 7.91659 0.0904105 8.02079 0.117158 8.11907C0.143905 8.21735 0.200849 8.30475 0.279948 8.36892L2.0105 9.74169C2.03899 9.76468 2.0729 9.77996 2.10899 9.78609C2.14508 9.79222 2.18214 9.78898 2.21661 9.77669C2.7105 9.58614 4.54995 8.61003 6.72384 7.41614L7.15939 11.8923C7.16309 11.931 7.1773 11.968 7.20049 11.9993C7.22368 12.0306 7.25497 12.055 7.29099 12.0698C7.32701 12.0846 7.36638 12.0893 7.40487 12.0833C7.44336 12.0774 7.4795 12.0611 7.50939 12.0361L8.48162 11.2273C8.53484 11.1826 8.57063 11.1207 8.58273 11.0523L9.50439 5.88392C11.0599 5.02058 12.5455 4.18447 13.5916 3.59336C13.7002 3.53429 13.788 3.44327 13.8431 3.33264C13.8982 3.22201 13.9179 3.09712 13.8997 2.97488C13.8814 2.85264 13.826 2.73897 13.741 2.64926C13.656 2.55955 13.5455 2.49815 13.4244 2.47336Z" fill="#2D4874"/>
</g>
<defs>
<clipPath id="clip0_106_1018">
<rect width="14" height="14" fill="white"/>
</clipPath>
</defs>
</svg>
