<svg width="14" height="14" viewBox="0 0 14 14" fill="none" xmlns="http://www.w3.org/2000/svg">
<g clip-path="url(#clip0_106_1041)">
<path d="M10.9201 0.745056H6.62162C6.34957 0.745056 6.08829 0.853365 5.8958 1.04586L0.300674 6.63996C-0.100225 7.04085 -0.100225 7.69071 0.300674 8.09212L4.59917 12.3906C5.00006 12.7915 5.64992 12.7915 6.05082 12.3906L11.6459 6.79652C11.8384 6.60351 11.9467 6.34223 11.9467 6.06966V1.77168C11.9467 1.20447 11.4873 0.745056 10.9201 0.745056ZM9.12352 4.33825C8.69849 4.33825 8.35355 3.99331 8.35355 3.56828C8.35355 3.14326 8.69849 2.79831 9.12352 2.79831C9.54854 2.79831 9.89349 3.14326 9.89349 3.56828C9.89349 3.99331 9.54854 4.33825 9.12352 4.33825Z" fill="#2D4874"/>
<path d="M12.9732 1.77167L12.9726 6.55011C12.9726 6.78675 12.8787 7.01414 12.7109 7.18148L7.02539 12.867L7.11265 12.9542C7.51355 13.3551 8.16341 13.3551 8.56431 12.9542L13.6985 7.82107C13.8915 7.62858 13.9998 7.3673 13.9998 7.09525V2.7983C13.9998 2.23108 13.5404 1.77167 12.9732 1.77167Z" fill="#2D4874"/>
</g>
<defs>
<clipPath id="clip0_106_1041">
<rect width="14" height="14" fill="white"/>
</clipPath>
</defs>
</svg>
