<svg width="14" height="14" viewBox="0 0 14 14" fill="none" xmlns="http://www.w3.org/2000/svg">
<g clip-path="url(#clip0_106_1022)">
<path d="M8.11547 10.5033C8.87066 10.7619 9.5375 10.9267 10.4956 11.2211C10.1275 15.8719 5.72965 14.0249 8.11547 10.5033ZM12.0421 6.23094C11.9925 4.83449 11.7465 3.00266 9.78732 3.28969C8.86889 3.52938 8.19029 4.53804 7.87113 6.27828C7.69584 7.23511 7.79777 8.57816 8.00454 9.38325C8.19334 9.9506 8.12913 9.91572 8.33204 10.0235C9.11741 10.2004 9.8949 10.3962 10.6867 10.596C11.491 10.028 12.1516 7.01242 12.0421 6.23094ZM5.99582 6.12376C6.20243 5.31857 6.30436 3.97552 6.12915 3.0188C5.81024 1.27847 5.13155 0.269658 4.21296 0.0301309C2.25376 -0.256899 2.00779 1.5749 1.9582 2.97143C1.84871 3.75278 2.50939 6.7685 3.3138 7.33639C4.10549 7.13668 4.88287 6.94099 5.66849 6.76391C5.87116 6.65627 5.80695 6.69112 5.99582 6.12376ZM3.5046 7.96167C3.87254 12.6124 8.27042 10.7655 5.88465 7.24391C5.12946 7.50256 4.46268 7.66726 3.5046 7.96167Z" fill="#2D4874"/>
</g>
<defs>
<clipPath id="clip0_106_1022">
<rect width="14" height="14" fill="white"/>
</clipPath>
</defs>
</svg>
