<svg width="14" height="14" viewBox="0 0 14 14" fill="none" xmlns="http://www.w3.org/2000/svg">
<path d="M1.16189 7.83269H12.8382C13.3195 7.83269 13.7096 7.44258 13.7096 6.96133C13.7096 6.48008 13.3195 6.08997 12.8382 6.08997H1.16189C0.680641 6.08997 0.290527 6.48008 0.290527 6.96133C0.2905 7.44258 0.680641 7.83269 1.16189 7.83269Z" fill="#2D4874"/>
<path d="M7.87136 4.21045C7.61704 4.21045 7.41016 4.41733 7.41016 4.67166V5.26958H10.9796V4.67166C10.9796 4.41733 10.7727 4.21045 10.5184 4.21045H7.87136Z" fill="#2D4874"/>
<path d="M2.19996 4.67171C2.19996 3.96507 2.77484 3.39019 3.48148 3.39019H6.1285C6.46477 3.39019 6.77102 3.52057 6.99986 3.73319C7.2287 3.52057 7.53495 3.39019 7.87122 3.39019H10.5182C11.2249 3.39019 11.7998 3.96507 11.7998 4.67171V5.26964H13.1311V2.44448C13.1311 1.96323 12.741 1.57312 12.2597 1.57312H1.74002C1.25877 1.57312 0.868652 1.96323 0.868652 2.44448V5.26964H2.19996V4.67171Z" fill="#2D4874"/>
<path d="M3.48171 4.21045C3.22739 4.21045 3.02051 4.41733 3.02051 4.67166V5.26958H6.58993V4.67166C6.58993 4.41733 6.38305 4.21045 6.12873 4.21045H3.48171Z" fill="#2D4874"/>
<path d="M0 8.65302V12.4269H0.820312V10.9313H13.1797V12.4269H14V8.65302H0Z" fill="#2D4874"/>
</svg>
