<svg width="12" height="12" viewBox="0 0 12 12" fill="none" xmlns="http://www.w3.org/2000/svg">
<g clip-path="url(#clip0_106_1015)">
<path fill-rule="evenodd" clip-rule="evenodd" d="M2.34375 0H9.65625C10.2775 0.00119552 10.8729 0.24851 11.3122 0.687789C11.7515 1.12707 11.9988 1.72252 12 2.34375V9.65625C11.9988 10.2775 11.7515 10.8729 11.3122 11.3122C10.8729 11.7515 10.2775 11.9988 9.65625 12H2.34375C1.72252 11.9988 1.12707 11.7515 0.687789 11.3122C0.24851 10.8729 0.00119552 10.2775 0 9.65625L0 2.34375C0.00119552 1.72252 0.24851 1.12707 0.687789 0.687789C1.12707 0.24851 1.72252 0.00119552 2.34375 0V0ZM2.48438 9.0762C2.48441 9.19273 2.53072 9.30449 2.61312 9.38689C2.69553 9.4693 2.80729 9.5156 2.92383 9.51562H5.22382C5.28191 9.51622 5.33955 9.5053 5.39339 9.48349C5.44723 9.46167 5.49622 9.4294 5.53751 9.38853C5.5788 9.34766 5.61158 9.29902 5.63395 9.2454C5.65632 9.19178 5.66784 9.13427 5.66784 9.07617C5.66784 9.01808 5.65632 8.96056 5.63395 8.90694C5.61158 8.85333 5.5788 8.80468 5.53751 8.76381C5.49622 8.72295 5.44723 8.69067 5.39339 8.66886C5.33955 8.64704 5.28191 8.63612 5.22382 8.63672H3.9848L5.62073 7.00078C5.70317 6.91836 5.74949 6.80657 5.7495 6.69001C5.74951 6.57344 5.70321 6.46164 5.62079 6.37921C5.57998 6.33839 5.53153 6.30601 5.47821 6.28392C5.42489 6.26183 5.36774 6.25045 5.31002 6.25045C5.19345 6.25043 5.08165 6.29673 4.99922 6.37915L3.36328 8.01532V6.77618C3.36209 6.66042 3.31526 6.5498 3.23298 6.46836C3.15069 6.38692 3.0396 6.34124 2.92383 6.34124C2.80806 6.34124 2.69696 6.38692 2.61468 6.46836C2.5324 6.5498 2.48557 6.66042 2.48438 6.77618V9.0762ZM9.51562 2.92385C9.5156 2.80731 9.46929 2.69554 9.38689 2.61313C9.30448 2.53072 9.19272 2.48441 9.07617 2.48438H6.77618C6.71809 2.48378 6.66045 2.4947 6.60661 2.51651C6.55277 2.53833 6.50378 2.5706 6.46249 2.61147C6.4212 2.65234 6.38842 2.70098 6.36605 2.7546C6.34368 2.80822 6.33216 2.86573 6.33216 2.92383C6.33216 2.98192 6.34368 3.03944 6.36605 3.09306C6.38842 3.14667 6.4212 3.19532 6.46249 3.23619C6.50378 3.27705 6.55277 3.30933 6.60661 3.33114C6.66045 3.35296 6.71809 3.36388 6.77618 3.36328H8.01532L6.37915 4.99922C6.29671 5.08165 6.2504 5.19346 6.2504 5.31003C6.2504 5.42661 6.29671 5.53842 6.37915 5.62085C6.46158 5.70329 6.57339 5.7496 6.68997 5.7496C6.80654 5.7496 6.91835 5.70329 7.00078 5.62085L8.63672 3.98468V5.22384C8.63791 5.33961 8.68474 5.45022 8.76702 5.53166C8.84931 5.6131 8.9604 5.65878 9.07617 5.65878C9.19194 5.65878 9.30304 5.6131 9.38532 5.53166C9.4676 5.45022 9.51443 5.33961 9.51562 5.22384V2.92385Z" fill="#2D4874"/>
</g>
<defs>
<clipPath id="clip0_106_1015">
<rect width="12" height="12" fill="white"/>
</clipPath>
</defs>
</svg>
