<svg width="28" height="24" viewBox="0 0 28 24" fill="none" xmlns="http://www.w3.org/2000/svg">
<path fill-rule="evenodd" clip-rule="evenodd" d="M12.6667 0C11.6058 0 10.5884 0.421427 9.83823 1.17157C9.08808 1.92172 8.66666 2.93913 8.66666 4V5.33333H4.66666C3.60579 5.33333 2.58837 5.75476 1.83823 6.50491C1.08808 7.25505 0.666656 8.27247 0.666656 9.33333V20C0.666656 21.0609 1.08808 22.0783 1.83823 22.8284C2.58837 23.5786 3.60579 24 4.66666 24H23.3333C24.3942 24 25.4116 23.5786 26.1617 22.8284C26.9119 22.0783 27.3333 21.0609 27.3333 20V9.33333C27.3333 8.27247 26.9119 7.25505 26.1617 6.50491C25.4116 5.75476 24.3942 5.33333 23.3333 5.33333H19.3333V4C19.3333 2.93913 18.9119 1.92172 18.1617 1.17157C17.4116 0.421427 16.3942 0 15.3333 0H12.6667ZM16.6667 5.33333H11.3333V4C11.3333 3.64638 11.4738 3.30724 11.7238 3.05719C11.9739 2.80714 12.313 2.66667 12.6667 2.66667H15.3333C15.6869 2.66667 16.0261 2.80714 16.2761 3.05719C16.5262 3.30724 16.6667 3.64638 16.6667 4V5.33333Z" fill="white"/>
</svg>
