<svg width="16" height="14" viewBox="0 0 16 14" fill="none" xmlns="http://www.w3.org/2000/svg">
<path d="M11.75 0C10.8818 0 10.0858 0.27269 9.38416 0.810513C8.7115 1.32613 8.26366 1.98286 8 2.46041C7.73634 1.98283 7.2885 1.32613 6.61584 0.810513C5.91422 0.27269 5.11822 0 4.25 0C1.82713 0 0 1.96424 0 4.56902C0 7.38308 2.27947 9.30842 5.73028 12.2231C6.31628 12.7181 6.9805 13.2792 7.67088 13.8775C7.76188 13.9565 7.87875 14 8 14C8.12125 14 8.23813 13.9565 8.32913 13.8776C9.01956 13.2791 9.68375 12.7181 10.2701 12.2228C13.7205 9.30842 16 7.38308 16 4.56902C16 1.96424 14.1729 0 11.75 0Z" fill="#2D4874"/>
</svg>
