<svg width="25" height="21" viewBox="0 0 25 21" fill="none" xmlns="http://www.w3.org/2000/svg">
<path d="M24.2647 19.5C24.6708 19.5 25 19.8358 25 20.25C25 20.6642 24.6708 21 24.2647 21H0.735303C0.329199 21 0 20.6642 0 20.25C0 19.8358 0.329199 19.5 0.735303 19.5H24.2647ZM3.67646 6.00001H10.2941C10.7002 6.00001 11.0294 6.33579 11.0294 6.75001V18H2.94116V6.75001C2.94116 6.33579 3.27036 6.00001 3.67646 6.00001ZM14.7059 0H21.3235C21.7296 0 22.0588 0.335783 22.0588 0.750007V18H13.9706V0.750007C13.9706 0.335832 14.2998 0 14.7059 0Z" fill="#ECEEF2"/>
</svg>
