<svg width="21" height="17" viewBox="0 0 21 17" fill="none" xmlns="http://www.w3.org/2000/svg">
<path d="M20.3823 15.7857C20.7235 15.7857 21 16.0575 21 16.3929C21 16.7282 20.7235 17 20.3823 17H0.617654C0.276527 17 0 16.7281 0 16.3929C0 16.0575 0.276527 15.7857 0.617654 15.7857H20.3823ZM3.08823 4.85715H8.64704C8.98816 4.85715 9.26469 5.12897 9.26469 5.4643V14.5714H2.47058V5.4643C2.47058 5.12897 2.7471 4.85715 3.08823 4.85715ZM12.3529 0H17.9117C18.2529 0 18.5294 0.271824 18.5294 0.607149V14.5714H11.7353V0.607149C11.7353 0.271864 12.0118 0 12.3529 0Z" fill="#2D4874"/>
</svg>
