<svg width="20" height="20" viewBox="0 0 20 20" fill="none" xmlns="http://www.w3.org/2000/svg">
<path d="M9.86665 13.1557C11.6831 13.1557 13.1555 11.6832 13.1555 9.86677C13.1555 8.05037 11.6831 6.57788 9.86665 6.57788C8.05024 6.57788 6.57776 8.05037 6.57776 9.86677C6.57776 11.6832 8.05024 13.1557 9.86665 13.1557Z" fill="#2D4874"/>
<path d="M10.6889 3.34571V1.64453H9.04447V3.34571C7.5976 3.53045 6.253 4.19027 5.22161 5.22167C4.19021 6.25306 3.53039 7.59767 3.34565 9.04453H1.64447V10.689H3.34565C3.53012 12.1359 4.18985 13.4807 5.2213 14.5121C6.25274 15.5436 7.5975 16.2033 9.04447 16.3878V18.089H10.6889V16.3878C12.1359 16.2035 13.4808 15.5438 14.5122 14.5123C15.5437 13.4808 16.2034 12.136 16.3877 10.689H18.0889V9.04453H16.3877C16.2033 7.59756 15.5435 6.2528 14.5121 5.22136C13.4806 4.18991 12.1359 3.53018 10.6889 3.34571ZM9.86669 14.8001C7.14596 14.8001 4.93336 12.5875 4.93336 9.86675C4.93336 7.14602 7.14596 4.93342 9.86669 4.93342C12.5874 4.93342 14.8 7.14602 14.8 9.86675C14.8 12.5875 12.5874 14.8001 9.86669 14.8001Z" fill="#2D4874"/>
</svg>
