<svg width="11" height="11" viewBox="0 0 11 11" fill="none" xmlns="http://www.w3.org/2000/svg">
<g clip-path="url(#clip0_180_927)">
<path d="M0.300205 4.6662C0.105873 4.14128 -0.0348501 3.6052 0.00759027 3.0356C0.0343947 2.68491 0.166183 2.38559 0.423059 2.13989C0.702272 1.87631 0.965849 1.59933 1.24059 1.33129C1.59799 0.978362 2.04696 0.980595 2.40435 1.33129C2.62549 1.54796 2.84439 1.76909 3.06329 1.99023C3.2755 2.20243 3.48993 2.41463 3.70213 2.62907C4.07516 3.00656 4.0774 3.4466 3.70437 3.82186C3.43632 4.08991 3.17051 4.36019 2.898 4.62376C2.82652 4.69301 2.81982 4.75108 2.85779 4.8382C3.03649 5.26707 3.2956 5.64903 3.58598 6.00643C4.17121 6.72568 4.83239 7.36452 5.62088 7.85816C5.79065 7.96315 5.97604 8.04133 6.15251 8.13738C6.24409 8.18652 6.3044 8.17088 6.37811 8.09494C6.64392 7.82019 6.91643 7.54991 7.18894 7.27964C7.54634 6.92671 7.99308 6.92448 8.35047 7.27964C8.78827 7.71297 9.22385 8.14855 9.65718 8.58635C10.0213 8.95268 10.019 9.40165 9.65272 9.77021C9.40478 10.0204 9.14343 10.2572 8.91113 10.5185C8.57161 10.8982 8.14273 11.0233 7.65579 10.9965C6.94547 10.9585 6.291 10.7218 5.65886 10.4158C4.25609 9.73447 3.05883 8.78962 2.0559 7.59682C1.31431 6.71228 0.702272 5.75178 0.300205 4.6662ZM10.9996 5.46587C10.9996 2.45261 8.54703 0 5.53377 0V1.04091C7.97297 1.04091 9.95873 3.02667 9.95873 5.46587H10.9996ZM8.00648 5.46587H9.04738C9.04738 3.52925 7.47039 1.95226 5.53377 1.95226V2.99316C6.19495 2.99316 6.81592 3.25004 7.28276 3.71688C7.7496 4.18372 8.00648 4.80469 8.00648 5.46587Z" fill="#F5F6F6"/>
</g>
<defs>
<clipPath id="clip0_180_927">
<rect width="11" height="11" fill="white"/>
</clipPath>
</defs>
</svg>
