<svg width="11" height="11" viewBox="0 0 11 11" fill="none" xmlns="http://www.w3.org/2000/svg">
<g clip-path="url(#clip0_180_933)">
<path d="M6.60988 9.99512C6.60988 9.61493 6.30167 9.30672 5.92148 9.30672H5.07852C4.89595 9.30672 4.72085 9.37925 4.59175 9.50835C4.46265 9.63745 4.39012 9.81254 4.39012 9.99512C4.39012 10.3753 4.69833 10.6835 5.07852 10.6835H5.92148C6.30167 10.6835 6.60988 10.3753 6.60988 9.99512ZM1.44721 8.22001C1.56219 8.2288 1.7013 8.23385 1.84104 8.22566C1.91548 8.60319 2.10042 8.95334 2.37647 9.22941C2.74295 9.59587 3.23999 9.80176 3.75826 9.80176H4.02093C4.00935 9.86514 4.0034 9.92983 4.0034 9.99512C4.0034 10.0611 4.00935 10.1258 4.02076 10.1885H3.75826C3.13743 10.1885 2.54201 9.94186 2.10302 9.50287C1.7528 9.15263 1.525 8.70285 1.44721 8.22001ZM1.2505 7.80852C0.945184 7.75705 0.661074 7.6119 0.439291 7.39009C0.158018 7.10882 0 6.72732 0 6.32954V5.41553C0 5.01775 0.158018 4.63625 0.439291 4.35497C0.720564 4.0737 1.10206 3.91566 1.49985 3.91566H1.59968C1.75927 1.90137 3.44455 0.316406 5.5 0.316406C7.55545 0.316406 9.24073 1.90137 9.40032 3.91566H9.50015C9.89794 3.91566 10.2794 4.0737 10.5607 4.35497C10.842 4.63625 11 5.01775 11 5.41553V6.32954C11 6.72732 10.842 7.10882 10.5607 7.39009C10.2794 7.67139 9.89794 7.82941 9.50015 7.82941H9.05756C8.87399 7.82941 8.72519 7.68058 8.72519 7.49704V4.2291C8.72519 2.44787 7.28123 1.00391 5.5 1.00391C3.71877 1.00391 2.27481 2.44787 2.27481 4.2291V7.49704C2.27481 7.62664 2.20062 7.73894 2.09238 7.79374C1.79444 7.89713 1.33238 7.82234 1.2505 7.80852Z" fill="white"/>
</g>
<defs>
<clipPath id="clip0_180_933">
<rect width="11" height="11" fill="white"/>
</clipPath>
</defs>
</svg>
