<svg width="11" height="11" viewBox="0 0 11 11" fill="none" xmlns="http://www.w3.org/2000/svg">
<g clip-path="url(#clip0_180_920)">
<path d="M8.25065 0.458374H2.75065C2.14309 0.459102 1.56061 0.700778 1.131 1.13039C0.701389 1.56 0.459712 2.14248 0.458984 2.75004V6.41671C0.459651 6.9448 0.642359 7.45652 0.976313 7.86561C1.31027 8.27471 1.77505 8.55616 2.29232 8.66254V10.0834C2.29231 10.1664 2.31482 10.2478 2.35746 10.319C2.4001 10.3901 2.46126 10.4484 2.53443 10.4876C2.60759 10.5267 2.69001 10.5453 2.77289 10.5412C2.85577 10.5372 2.936 10.5108 3.00503 10.4647L5.63815 8.70837H8.25065C8.85822 8.70765 9.44069 8.46597 9.8703 8.03636C10.2999 7.60674 10.5416 7.02427 10.5423 6.41671V2.75004C10.5416 2.14248 10.2999 1.56 9.8703 1.13039C9.44069 0.700778 8.85822 0.459102 8.25065 0.458374ZM7.33398 5.95837H3.66732C3.54576 5.95837 3.42918 5.91009 3.34323 5.82413C3.25727 5.73818 3.20898 5.6216 3.20898 5.50004C3.20898 5.37848 3.25727 5.2619 3.34323 5.17595C3.42918 5.09 3.54576 5.04171 3.66732 5.04171H7.33398C7.45554 5.04171 7.57212 5.09 7.65807 5.17595C7.74403 5.2619 7.79232 5.37848 7.79232 5.50004C7.79232 5.6216 7.74403 5.73818 7.65807 5.82413C7.57212 5.91009 7.45554 5.95837 7.33398 5.95837ZM8.25065 4.12504H2.75065C2.62909 4.12504 2.51251 4.07675 2.42656 3.9908C2.34061 3.90484 2.29232 3.78827 2.29232 3.66671C2.29232 3.54515 2.34061 3.42857 2.42656 3.34262C2.51251 3.25666 2.62909 3.20837 2.75065 3.20837H8.25065C8.37221 3.20837 8.48879 3.25666 8.57474 3.34262C8.6607 3.42857 8.70898 3.54515 8.70898 3.66671C8.70898 3.78827 8.6607 3.90484 8.57474 3.9908C8.48879 4.07675 8.37221 4.12504 8.25065 4.12504Z" fill="white"/>
</g>
<defs>
<clipPath id="clip0_180_920">
<rect width="11" height="11" fill="white"/>
</clipPath>
</defs>
</svg>
