<svg width="11" height="11" viewBox="0 0 11 11" fill="none" xmlns="http://www.w3.org/2000/svg">
<path d="M6.1194 0.177662C5.73962 -0.0592188 5.25978 -0.0592227 4.88001 0.177662L0.55857 2.87312C0.505848 2.906 0.456297 2.94268 0.410156 2.98267L4.65702 6.77451C4.6597 6.77683 4.66233 6.77918 4.66496 6.78162L5.23806 7.29328C5.38711 7.42638 5.6123 7.42638 5.76135 7.29328L6.33445 6.78162C6.33708 6.77918 6.33971 6.77683 6.34238 6.77451L10.5892 2.98267C10.5431 2.94268 10.4935 2.906 10.4408 2.87312L6.1194 0.177662Z" fill="#F5F6F6"/>
<path d="M6.60044 7.59814L6.28537 7.87943C5.83826 8.27869 5.16266 8.27869 4.71551 7.87943L4.40044 7.59814L0.703125 10.8993C0.848321 10.964 1.0092 11.0001 1.17901 11.0001H9.82187C9.99166 11.0001 10.1526 10.964 10.2977 10.8993L6.60044 7.59814Z" fill="#F5F6F6"/>
<path d="M10.8684 10.3562L7.18945 7.07147L10.9828 3.68457C10.9939 3.75014 10.9996 3.81708 10.9996 3.88473V9.81078C10.9996 10.0068 10.9523 10.1924 10.8684 10.3562Z" fill="#F5F6F6"/>
<path d="M0.131187 10.3562L3.81012 7.07147L0.0168064 3.68457C0.00570818 3.75014 0 3.81708 0 3.88473V9.81078C0 10.0068 0.0472607 10.1924 0.131187 10.3562Z" fill="#F5F6F6"/>
</svg>
