<svg width="21" height="20" viewBox="0 0 21 20" fill="none" xmlns="http://www.w3.org/2000/svg">
<path d="M10.3374 4.70447e-06C4.93594 0.00115082 0.5581 4.38086 0.559246 9.78233C0.559628 11.6527 1.09636 13.4837 2.10571 15.0583L0.584079 19.0063C0.503048 19.2162 0.607574 19.4521 0.817543 19.5332C0.864496 19.5513 0.914352 19.5606 0.964667 19.5605C1.01135 19.5607 1.05769 19.5527 1.10159 19.5368L5.1767 18.082C9.76164 20.9376 15.7934 19.5356 18.6489 14.9506C21.5044 10.3657 20.1025 4.33398 15.5175 1.47846C13.9633 0.510448 12.1685 -0.00179088 10.3374 4.70447e-06Z" fill="#4CAF50"/>
<path d="M15.0002 11.4517C15.0002 11.4517 14.0018 10.9627 13.3767 10.6367C12.6693 10.2724 11.8379 10.9546 11.4467 11.3425C10.8379 11.1086 10.2818 10.7556 9.81098 10.3042C9.35945 9.83346 9.00644 9.27736 8.77264 8.66843C9.1606 8.27642 9.84113 7.4459 9.47845 6.73848C9.15651 6.11254 8.66345 5.11496 8.66345 5.11416C8.59426 4.97685 8.45371 4.89017 8.29994 4.89001H7.48493C6.29801 5.09502 5.43502 6.13065 5.4474 7.33507C5.4474 8.61464 6.9788 11.0728 8.01146 12.1062C9.04411 13.1396 11.5022 14.6702 12.7826 14.6702C13.987 14.6826 15.0226 13.8196 15.2276 12.6327V11.8177C15.2277 11.6623 15.1396 11.5204 15.0002 11.4517Z" fill="#FAFAFA"/>
</svg>
