<svg width="34" height="34" viewBox="0 0 34 34" fill="none" xmlns="http://www.w3.org/2000/svg">
<path d="M10.004 4.14286C10.2523 3.5159 10.7122 2.97313 11.3204 2.58935C11.9286 2.20556 12.6552 1.99965 13.4 2H20.6C21.3448 1.99965 22.0714 2.20556 22.6796 2.58935C23.2878 2.97313 23.7477 3.5159 23.996 4.14286H25.4C26.3548 4.14286 27.2705 4.4815 27.9456 5.0843C28.6207 5.6871 29 6.50466 29 7.35714V28.7857C29 29.6382 28.6207 30.4558 27.9456 31.0586C27.2705 31.6614 26.3548 32 25.4 32H8.6C7.64522 32 6.72955 31.6614 6.05442 31.0586C5.37928 30.4558 5 29.6382 5 28.7857V7.35714C5 6.50466 5.37928 5.6871 6.05442 5.0843C6.72955 4.4815 7.64522 4.14286 8.6 4.14286H10.004ZM13.4 4.14286C13.0817 4.14286 12.7765 4.25574 12.5515 4.45667C12.3264 4.6576 12.2 4.93013 12.2 5.21429C12.2 5.49845 12.3264 5.77097 12.5515 5.9719C12.7765 6.17283 13.0817 6.28571 13.4 6.28571H20.6C20.9183 6.28571 21.2235 6.17283 21.4485 5.9719C21.6736 5.77097 21.8 5.49845 21.8 5.21429C21.8 4.93013 21.6736 4.6576 21.4485 4.45667C21.2235 4.25574 20.9183 4.14286 20.6 4.14286H13.4ZM14.6 15.9286C14.6 16.2127 14.7264 16.4853 14.9515 16.6862C15.1765 16.8871 15.4817 17 15.8 17H23C23.3183 17 23.6235 16.8871 23.8485 16.6862C24.0736 16.4853 24.2 16.2127 24.2 15.9286C24.2 15.6444 24.0736 15.3719 23.8485 15.171C23.6235 14.97 23.3183 14.8571 23 14.8571H15.8C15.4817 14.8571 15.1765 14.97 14.9515 15.171C14.7264 15.3719 14.6 15.6444 14.6 15.9286ZM14.6 22.3571C14.6 22.6413 14.7264 22.9138 14.9515 23.1148C15.1765 23.3157 15.4817 23.4286 15.8 23.4286H23C23.3183 23.4286 23.6235 23.3157 23.8485 23.1148C24.0736 22.9138 24.2 22.6413 24.2 22.3571C24.2 22.073 24.0736 21.8005 23.8485 21.5995C23.6235 21.3986 23.3183 21.2857 23 21.2857H15.8C15.4817 21.2857 15.1765 21.3986 14.9515 21.5995C14.7264 21.8005 14.6 22.073 14.6 22.3571ZM11 17C11.3183 17 11.6235 16.8871 11.8485 16.6862C12.0736 16.4853 12.2 16.2127 12.2 15.9286C12.2 15.6444 12.0736 15.3719 11.8485 15.171C11.6235 14.97 11.3183 14.8571 11 14.8571C10.6817 14.8571 10.3765 14.97 10.1515 15.171C9.92643 15.3719 9.8 15.6444 9.8 15.9286C9.8 16.2127 9.92643 16.4853 10.1515 16.6862C10.3765 16.8871 10.6817 17 11 17ZM11 23.4286C11.3183 23.4286 11.6235 23.3157 11.8485 23.1148C12.0736 22.9138 12.2 22.6413 12.2 22.3571C12.2 22.073 12.0736 21.8005 11.8485 21.5995C11.6235 21.3986 11.3183 21.2857 11 21.2857C10.6817 21.2857 10.3765 21.3986 10.1515 21.5995C9.92643 21.8005 9.8 22.073 9.8 22.3571C9.8 22.6413 9.92643 22.9138 10.1515 23.1148C10.3765 23.3157 10.6817 23.4286 11 23.4286Z" fill="white"/>
</svg>
