<svg width="96" height="16" viewBox="0 0 96 16" fill="none" xmlns="http://www.w3.org/2000/svg">
<g clip-path="url(#clip0_45_299)">
<path d="M3.612 15.443C3.226 15.641 2.788 15.294 2.866 14.851L3.696 10.121L0.172996 6.76501C-0.156004 6.45101 0.0149962 5.87701 0.455996 5.81501L5.354 5.11901L7.538 0.792012C7.735 0.402012 8.268 0.402012 8.465 0.792012L10.649 5.11901L15.547 5.81501C15.988 5.87701 16.159 6.45101 15.829 6.76501L12.307 10.121L13.137 14.851C13.215 15.294 12.777 15.641 12.391 15.443L8 13.187L3.611 15.443H3.612Z" fill="#0050F4"/>
</g>
<g clip-path="url(#clip1_45_299)">
<path d="M23.612 15.443C23.226 15.641 22.788 15.294 22.866 14.851L23.696 10.121L20.173 6.76501C19.844 6.45101 20.015 5.87701 20.456 5.81501L25.354 5.11901L27.538 0.792012C27.735 0.402012 28.268 0.402012 28.465 0.792012L30.649 5.11901L35.547 5.81501C35.988 5.87701 36.159 6.45101 35.829 6.76501L32.307 10.121L33.137 14.851C33.215 15.294 32.777 15.641 32.391 15.443L28 13.187L23.611 15.443H23.612Z" fill="#0050F4"/>
</g>
<g clip-path="url(#clip2_45_299)">
<path d="M43.612 15.443C43.226 15.641 42.788 15.294 42.866 14.851L43.696 10.121L40.173 6.76501C39.844 6.45101 40.015 5.87701 40.456 5.81501L45.354 5.11901L47.538 0.792012C47.735 0.402012 48.268 0.402012 48.465 0.792012L50.649 5.11901L55.547 5.81501C55.988 5.87701 56.159 6.45101 55.829 6.76501L52.307 10.121L53.137 14.851C53.215 15.294 52.777 15.641 52.391 15.443L48 13.187L43.611 15.443H43.612Z" fill="#0050F4"/>
</g>
<g clip-path="url(#clip3_45_299)">
<path d="M63.612 15.443C63.226 15.641 62.788 15.294 62.866 14.851L63.696 10.121L60.173 6.76501C59.844 6.45101 60.015 5.87701 60.456 5.81501L65.354 5.11901L67.538 0.792012C67.735 0.402012 68.268 0.402012 68.465 0.792012L70.649 5.11901L75.547 5.81501C75.988 5.87701 76.159 6.45101 75.829 6.76501L72.307 10.121L73.137 14.851C73.215 15.294 72.777 15.641 72.391 15.443L68 13.187L63.611 15.443H63.612Z" fill="#0050F4"/>
</g>
<g clip-path="url(#clip4_45_299)">
<path d="M83.612 15.443C83.226 15.641 82.788 15.294 82.866 14.851L83.696 10.121L80.173 6.76501C79.844 6.45101 80.015 5.87701 80.456 5.81501L85.354 5.11901L87.538 0.792012C87.735 0.402012 88.268 0.402012 88.465 0.792012L90.649 5.11901L95.547 5.81501C95.988 5.87701 96.159 6.45101 95.829 6.76501L92.307 10.121L93.137 14.851C93.215 15.294 92.777 15.641 92.391 15.443L88 13.187L83.611 15.443H83.612Z" fill="#0050F4"/>
</g>
<defs>
<clipPath id="clip0_45_299">
<rect width="16" height="16" fill="white"/>
</clipPath>
<clipPath id="clip1_45_299">
<rect width="16" height="16" fill="white" transform="translate(20)"/>
</clipPath>
<clipPath id="clip2_45_299">
<rect width="16" height="16" fill="white" transform="translate(40)"/>
</clipPath>
<clipPath id="clip3_45_299">
<rect width="16" height="16" fill="white" transform="translate(60)"/>
</clipPath>
<clipPath id="clip4_45_299">
<rect width="16" height="16" fill="white" transform="translate(80)"/>
</clipPath>
</defs>
</svg>
