<svg width="28" height="29" viewBox="0 0 28 29" fill="none" xmlns="http://www.w3.org/2000/svg">
<g clip-path="url(#clip0_45_230)">
<path fill-rule="evenodd" clip-rule="evenodd" d="M14 0.0214844C12.7925 0.0214844 10.7748 0.485234 8.87601 1.00148C6.93351 1.52648 4.97526 2.14773 3.82376 2.52398C3.34232 2.68297 2.91549 2.97455 2.59231 3.36521C2.26913 3.75587 2.06271 4.22978 1.99676 4.73248C0.953759 12.5672 3.37401 18.3737 6.31051 22.215C7.55578 23.8582 9.04056 25.3052 10.7153 26.5077C11.3908 26.9855 12.0173 27.3512 12.5493 27.6015C13.0393 27.8325 13.566 28.0215 14 28.0215C14.434 28.0215 14.959 27.8325 15.4508 27.6015C16.0921 27.2898 16.7057 26.9238 17.2848 26.5077C18.9595 25.3052 20.4443 23.8582 21.6895 22.215C24.626 18.3737 27.0463 12.5672 26.0033 4.73248C25.9374 4.22954 25.7311 3.75536 25.4079 3.36439C25.0847 2.97343 24.6578 2.68154 24.1763 2.52223C22.5047 1.97416 20.8201 1.46651 19.124 0.999734C17.2253 0.486984 15.2075 0.0214844 14 0.0214844ZM14 8.77148C14.6199 8.77056 15.2202 8.98906 15.6944 9.38829C16.1687 9.78752 16.4863 10.3417 16.5911 10.9527C16.6959 11.5637 16.5811 12.1921 16.267 12.7265C15.9529 13.261 15.4598 13.667 14.875 13.8727L15.5488 17.3552C15.5733 17.4819 15.5695 17.6124 15.5376 17.7374C15.5058 17.8625 15.4467 17.9789 15.3646 18.0784C15.2825 18.1779 15.1794 18.258 15.0627 18.313C14.9459 18.368 14.8185 18.3965 14.6895 18.3965H13.3105C13.1816 18.3963 13.0544 18.3676 12.9379 18.3125C12.8214 18.2574 12.7186 18.1772 12.6366 18.0777C12.5547 17.9783 12.4958 17.8619 12.464 17.737C12.4323 17.6121 12.4285 17.4818 12.453 17.3552L13.125 13.8727C12.5402 13.667 12.0471 13.261 11.733 12.7265C11.4189 12.1921 11.3041 11.5637 11.4089 10.9527C11.5137 10.3417 11.8313 9.78752 12.3056 9.38829C12.7798 8.98906 13.3801 8.77056 14 8.77148Z" fill="white"/>
</g>
<defs>
<clipPath id="clip0_45_230">
<rect width="28" height="28" fill="white" transform="translate(0 0.0214844)"/>
</clipPath>
</defs>
</svg>
