<svg width="20" height="20" viewBox="0 0 20 20" fill="none" xmlns="http://www.w3.org/2000/svg">
<g clip-path="url(#clip0_114_950)">
<path d="M15 10.0002C13.5002 10.0002 12.1583 10.6635 11.242 11.7092L8.06826 9.75596C8.23076 9.30996 8.3335 8.83545 8.3335 8.33345C8.3335 8.00547 8.28648 7.68994 8.21475 7.38296L12.4335 5.43623C13.0445 6.18174 13.9607 6.66675 15.0002 6.66675C16.8402 6.66675 18.3335 5.17427 18.3335 3.3335C18.3335 1.49272 16.84 0.000244141 15 0.000244141C13.1585 0.000244141 11.6667 1.49272 11.6667 3.3335C11.6667 3.53677 11.692 3.73301 11.726 3.92676L7.51221 5.87178C6.75298 4.84224 5.54277 4.16675 4.16675 4.16675C1.86523 4.16699 0 6.03198 0 8.3335C0 10.635 1.86523 12.5002 4.16675 12.5002C5.3645 12.5002 6.43726 11.9875 7.19727 11.177L10.3663 13.127C10.1317 13.7063 10 14.337 10 15.0002C10 17.7623 12.238 20.0002 15 20.0002C17.7605 20.0002 20 17.7623 20 15.0002C20 12.2382 17.7605 10.0002 15 10.0002Z" fill="#0050F4"/>
</g>
<defs>
<clipPath id="clip0_114_950">
<rect width="20" height="20" fill="white" transform="translate(0 0.000244141)"/>
</clipPath>
</defs>
</svg>
