<svg width="20" height="20" viewBox="0 0 20 20" fill="none" xmlns="http://www.w3.org/2000/svg">
<g clip-path="url(#clip0_114_944)">
<path d="M16.5039 3.86743V2.92993C16.5039 1.3145 15.1896 0.000244141 13.5742 0.000244141H6.38672C4.77129 0.000244141 3.45703 1.3145 3.45703 2.92993V3.86743H16.5039Z" fill="#0050F4"/>
<path d="M4.62891 12.4612V17.2268V18.2424V18.8284C4.62891 19.4756 5.15355 20.0002 5.80078 20.0002H14.1602C14.8074 20.0002 15.332 19.4756 15.332 18.8284V18.2424V17.2268V12.4612H4.62891ZM11.543 17.4612H8.41797C8.09437 17.4612 7.83203 17.1988 7.83203 16.8752C7.83203 16.5517 8.09437 16.2893 8.41797 16.2893H11.543C11.8666 16.2893 12.1289 16.5517 12.1289 16.8752C12.1289 17.1988 11.8666 17.4612 11.543 17.4612ZM11.543 14.9612H8.41797C8.09437 14.9612 7.83203 14.6988 7.83203 14.3752C7.83203 14.0517 8.09437 13.7893 8.41797 13.7893H11.543C11.8666 13.7893 12.1289 14.0517 12.1289 14.3752C12.1289 14.6988 11.8666 14.9612 11.543 14.9612Z" fill="#0050F4"/>
<path d="M17.0508 5.03931H2.94922C1.33379 5.03931 0.0195312 6.35356 0.0195312 7.96899V12.6565C0.0195312 14.2719 1.33379 15.5862 2.94922 15.5862H3.45703V12.4612H3.10547C2.78187 12.4612 2.51953 12.1988 2.51953 11.8752C2.51953 11.5517 2.78187 11.2893 3.10547 11.2893H4.04297H15.918H16.8555C17.1791 11.2893 17.4414 11.5517 17.4414 11.8752C17.4414 12.1988 17.1791 12.4612 16.8555 12.4612H16.5039V15.5862H17.0508C18.6662 15.5862 19.9805 14.2719 19.9805 12.6565V7.96899C19.9805 6.35356 18.6662 5.03931 17.0508 5.03931ZM4.98047 8.71118H3.10547C2.78187 8.71118 2.51953 8.44884 2.51953 8.12524C2.51953 7.80165 2.78187 7.53931 3.10547 7.53931H4.98047C5.30406 7.53931 5.56641 7.80165 5.56641 8.12524C5.56641 8.44884 5.30406 8.71118 4.98047 8.71118Z" fill="#0050F4"/>
</g>
<defs>
<clipPath id="clip0_114_944">
<rect width="20" height="20" fill="white" transform="translate(0 0.000244141)"/>
</clipPath>
</defs>
</svg>
