<svg width="16" height="16" viewBox="0 0 16 16" fill="none" xmlns="http://www.w3.org/2000/svg">
<path d="M2.00899 2.00335C4.8356 -0.722315 9.04216 -0.613677 11.6583 2.00335C14.16 4.50589 14.3129 8.46825 12.1171 11.1493L16.0005 15.0344L15.0356 15.9996L11.1518 12.1149C8.47167 14.3115 4.51067 14.1585 2.00899 11.656C-0.607151 9.03893 -0.730164 4.64468 2.00899 2.00335ZM10.6934 2.96861C8.5617 0.836219 5.10558 0.836219 2.97392 2.96861C0.84225 5.10101 0.84225 8.5583 2.97392 10.6907C5.10558 12.8231 8.5617 12.8231 10.6934 10.6907C12.825 8.5583 12.825 5.10101 10.6934 2.96861Z" fill="#2D4874"/>
</svg>
