<svg width="26" height="26" viewBox="0 0 26 26" fill="none" xmlns="http://www.w3.org/2000/svg">
<g clip-path="url(#clip0_139_850)">
<path d="M25.6445 22.4806L20.5816 17.4177C20.3531 17.1892 20.0434 17.0623 19.7184 17.0623H18.8906C20.2922 15.2697 21.125 13.015 21.125 10.5623C21.125 4.72749 16.3973 -0.000244141 10.5625 -0.000244141C4.72773 -0.000244141 0 4.72749 0 10.5623C0 16.397 4.72773 21.1248 10.5625 21.1248C13.0152 21.1248 15.2699 20.2919 17.0625 18.8904V19.7181C17.0625 20.0431 17.1895 20.3529 17.418 20.5814L22.4809 25.6443C22.9582 26.1216 23.7301 26.1216 24.2023 25.6443L25.6395 24.2072C26.1168 23.7298 26.1168 22.958 25.6445 22.4806ZM10.5625 17.0623C6.97227 17.0623 4.0625 14.1576 4.0625 10.5623C4.0625 6.97202 6.96719 4.06226 10.5625 4.06226C14.1527 4.06226 17.0625 6.96694 17.0625 10.5623C17.0625 14.1525 14.1578 17.0623 10.5625 17.0623Z" fill="white"/>
</g>
<defs>
<clipPath id="clip0_139_850">
<rect width="26" height="26" fill="white" transform="translate(0 -0.000244141)"/>
</clipPath>
</defs>
</svg>
