<svg width="18" height="18" viewBox="0 0 18 18" fill="none" xmlns="http://www.w3.org/2000/svg">
<path d="M2.25956 2.25418C5.4395 -0.812193 10.1719 -0.689975 13.115 2.25418C15.9294 5.06954 16.1015 9.52719 13.6312 12.5434L18 16.9141L16.9145 18L12.5452 13.6297C9.53008 16.1008 5.07395 15.9287 2.25956 13.1134C-0.683595 10.1692 -0.821984 5.22568 2.25956 2.25418ZM12.0295 3.3401C9.63136 0.941158 5.74323 0.941158 3.34511 3.3401C0.946982 5.73905 0.946982 9.6285 3.34511 12.0274C5.74323 14.4264 9.63136 14.4264 12.0295 12.0274C14.4276 9.6285 14.4276 5.73905 12.0295 3.3401Z" fill="#2D4874"/>
</svg>
