<svg width="34" height="34" viewBox="0 0 34 34" fill="none" xmlns="http://www.w3.org/2000/svg">
<path d="M13.7652 29.0404L24.777 17.7439C24.9704 17.5455 25.0786 17.2793 25.0786 17.0023C25.0786 16.7252 24.9704 16.4591 24.777 16.2606L13.7652 4.95989C13.6751 4.86736 13.5674 4.79381 13.4484 4.74359C13.3294 4.69338 13.2016 4.66751 13.0725 4.66751C12.9433 4.66751 12.8155 4.69338 12.6965 4.74359C12.5775 4.79381 12.4698 4.86736 12.3797 4.95989C12.1944 5.14964 12.0906 5.40438 12.0906 5.66964C12.0906 5.9349 12.1944 6.18963 12.3797 6.37939L22.7348 17.0023L12.3797 27.623C12.195 27.8127 12.0916 28.067 12.0916 28.3317C12.0916 28.5964 12.195 28.8507 12.3797 29.0404C12.4698 29.1329 12.5775 29.2065 12.6965 29.2567C12.8155 29.3069 12.9433 29.3328 13.0725 29.3328C13.2016 29.3328 13.3294 29.3069 13.4484 29.2567C13.5674 29.2065 13.6751 29.1329 13.7652 29.0404Z" fill="white"/>
</svg>
