<svg width="34" height="34" viewBox="0 0 34 34" fill="none" xmlns="http://www.w3.org/2000/svg">
<path d="M20.2343 4.95986L9.22254 16.2564C9.02914 16.4548 8.9209 16.7209 8.9209 16.998C8.9209 17.2751 9.02914 17.5412 9.22254 17.7396L20.2343 29.0404C20.3244 29.1329 20.4321 29.2064 20.5511 29.2567C20.6701 29.3069 20.7979 29.3327 20.927 29.3327C21.0562 29.3327 21.184 29.3069 21.303 29.2567C21.422 29.2064 21.5297 29.1329 21.6198 29.0404C21.8051 28.8506 21.9089 28.5959 21.9089 28.3306C21.9089 28.0653 21.8051 27.8106 21.6198 27.6209L11.2647 16.998L21.6198 6.37723C21.8045 6.18757 21.9079 5.93329 21.9079 5.66855C21.9079 5.4038 21.8045 5.14952 21.6198 4.95986C21.5297 4.86733 21.422 4.79379 21.303 4.74357C21.184 4.69335 21.0562 4.66748 20.927 4.66748C20.7979 4.66748 20.6701 4.69335 20.5511 4.74357C20.4321 4.79379 20.3244 4.86733 20.2343 4.95986Z" fill="white"/>
</svg>
