<svg width="18" height="18" viewBox="0 0 18 18" fill="none" xmlns="http://www.w3.org/2000/svg">
<g clip-path="url(#clip0_139_836)">
<path d="M3.12501 5.75003L6.00001 6.58003L9.16001 4.28503L4.62501 4.41503C4.58061 4.41746 4.53757 4.43123 4.50001 4.45503L3.06501 5.28003C3.02038 5.30477 2.98419 5.34232 2.96112 5.38784C2.93806 5.43336 2.92918 5.48476 2.93565 5.53538C2.94211 5.586 2.96361 5.63352 2.99737 5.67178C3.03113 5.71005 3.07559 5.73731 3.12501 5.75003Z" fill="white"/>
<path d="M17.2601 3.18005L14.1101 2.50005C13.8452 2.44254 13.571 2.44269 13.3062 2.50049C13.0413 2.5583 12.792 2.6724 12.5751 2.83505L3.06014 9.75005L0.775143 9.65005C0.64426 9.6456 0.515287 9.68238 0.406433 9.75519C0.297579 9.82799 0.214345 9.93315 0.168484 10.0558C0.122623 10.1785 0.116451 10.3125 0.150841 10.4388C0.18523 10.5652 0.258444 10.6775 0.360143 10.7601L2.58514 12.5251C2.62177 12.5546 2.66537 12.5743 2.71177 12.5821C2.75817 12.59 2.80581 12.5859 2.85014 12.5701C3.48514 12.3251 5.85014 11.0701 8.64514 9.53505L9.20514 15.2901C9.2099 15.3399 9.22816 15.3875 9.25798 15.4277C9.2878 15.4679 9.32803 15.4993 9.37434 15.5183C9.42064 15.5373 9.47127 15.5434 9.52076 15.5357C9.57024 15.5281 9.61671 15.5071 9.65514 15.4751L10.9051 14.4351C10.9736 14.3777 11.0196 14.298 11.0351 14.2101L12.2201 7.56505C14.2201 6.45505 16.1301 5.38005 17.4751 4.62005C17.6147 4.5441 17.7276 4.42708 17.7984 4.28484C17.8693 4.14261 17.8947 3.98203 17.8712 3.82487C17.8478 3.6677 17.7766 3.52155 17.6672 3.40621C17.5579 3.29087 17.4158 3.21192 17.2601 3.18005Z" fill="white"/>
</g>
<defs>
<clipPath id="clip0_139_836">
<rect width="18" height="18" fill="white"/>
</clipPath>
</defs>
</svg>
