<svg width="20" height="20" viewBox="0 0 20 20" fill="none" xmlns="http://www.w3.org/2000/svg">
<path d="M5.20801 1.66663C4.71073 1.66663 4.23381 1.86417 3.88218 2.2158C3.53055 2.56743 3.33301 3.04435 3.33301 3.54163V16.4583C3.33301 16.9556 3.53055 17.4325 3.88218 17.7841C4.23381 18.1357 4.71073 18.3333 5.20801 18.3333H11.458C11.9523 18.3333 12.4266 18.1382 12.7777 17.7903C13.1288 17.4425 13.3284 16.97 13.333 16.4758V15.2091C13.333 15.0434 13.2672 14.8844 13.15 14.7672C13.0327 14.65 12.8738 14.5841 12.708 14.5841C12.3297 14.5841 12.0913 14.4816 11.9272 14.3491C11.7538 14.21 11.6105 13.995 11.5022 13.6916C11.2747 13.0625 11.2497 12.2333 11.2497 11.4583C11.2497 11.2999 11.1895 11.1474 11.0813 11.0316L10.9447 10.8841C10.8997 10.8339 10.8525 10.7858 10.803 10.74C10.7413 10.6816 10.553 10.5025 9.81634 9.76663C9.42634 9.37579 9.20967 9.04579 9.13884 8.79329C9.11044 8.70577 9.10612 8.61222 9.12634 8.52246C9.15743 8.41893 9.21621 8.32585 9.29634 8.25329C9.36862 8.17323 9.46141 8.11444 9.56467 8.08329C9.65424 8.06337 9.74751 8.06798 9.83467 8.09663C10.0872 8.16746 10.4172 8.38496 10.808 8.77579C11.258 9.22579 11.6847 9.64746 12.0672 10.0258C12.7005 10.6525 13.2122 11.1591 13.5005 11.4675C13.6136 11.5888 13.7702 11.6603 13.9359 11.6661C14.1016 11.672 14.2629 11.6118 14.3843 11.4987C14.5056 11.3857 14.5771 11.229 14.5829 11.0633C14.5888 10.8976 14.5286 10.7363 14.4155 10.615C14.0605 10.2439 13.6994 9.87889 13.3322 9.51996V6.71663L15.7005 9.08496C16.0522 9.43663 16.2497 9.91329 16.2497 10.41V17.7083C16.2497 17.8741 16.3155 18.033 16.4327 18.1502C16.5499 18.2674 16.7089 18.3333 16.8747 18.3333C17.0404 18.3333 17.1994 18.2674 17.3166 18.1502C17.4338 18.033 17.4997 17.8741 17.4997 17.7083V10.4108C17.4998 10.0004 17.419 9.59398 17.262 9.21478C17.105 8.83559 16.8748 8.49103 16.5847 8.20079L13.333 4.94913V3.54079C13.3328 3.04366 13.1351 2.56696 12.7835 2.21551C12.4319 1.86406 11.9551 1.66663 11.458 1.66663H5.20801ZM11.1438 15.3233C11.418 15.5426 11.7396 15.695 12.083 15.7683V15.8333H11.458C11.2922 15.8333 11.1333 15.8991 11.0161 16.0163C10.8989 16.1336 10.833 16.2925 10.833 16.4583V17.0833H9.58301V16.4583C9.58301 15.7141 10.0163 15.0708 10.6455 14.7683C10.7788 14.9716 10.943 15.1616 11.1438 15.3233ZM10.0005 11.705C10.0022 11.9158 10.0072 12.1433 10.0197 12.38C9.63164 12.6548 9.1823 12.8306 8.71078 12.8921C8.23925 12.9535 7.75986 12.8988 7.31434 12.7326C6.86882 12.5663 6.4707 12.2937 6.15465 11.9385C5.8386 11.5832 5.6142 11.156 5.501 10.6942C5.38781 10.2323 5.38924 9.74983 5.50519 9.28867C5.62114 8.82752 5.84808 8.4017 6.16624 8.04832C6.48441 7.69493 6.88415 7.4247 7.33065 7.26115C7.77715 7.0976 8.25686 7.04569 8.72801 7.10996C8.61634 7.18413 8.51134 7.27079 8.41218 7.36996C8.16884 7.61329 7.99634 7.89496 7.91551 8.21163C7.83384 8.52829 7.85384 8.83996 7.93551 9.13163C8.09384 9.69246 8.48968 10.2075 8.93301 10.6508C9.2722 10.9939 9.61584 11.3325 9.96384 11.6666L9.96718 11.6691L9.99717 11.7016L10.0005 11.705ZM5.83301 2.91663H7.08301V3.54163C7.08301 4.03891 6.88546 4.51582 6.53383 4.86745C6.1822 5.21908 5.70529 5.41663 5.20801 5.41663H4.58301V4.16663H5.20801C5.37377 4.16663 5.53274 4.10078 5.64995 3.98357C5.76716 3.86636 5.83301 3.70739 5.83301 3.54163V2.91663ZM9.58301 2.91663H10.833V3.54163C10.833 3.88663 11.113 4.16663 11.458 4.16663H12.083V5.41663H11.458C10.9607 5.41663 10.4838 5.21908 10.1322 4.86745C9.78055 4.51582 9.58301 4.03891 9.58301 3.54163V2.91663ZM7.08301 17.0833H5.83301V16.4583C5.83301 16.2925 5.76716 16.1336 5.64995 16.0163C5.53274 15.8991 5.37377 15.8333 5.20801 15.8333H4.58301V14.5833H5.20801C5.70529 14.5833 6.1822 14.7808 6.53383 15.1325C6.88546 15.4841 7.08301 15.961 7.08301 16.4583V17.0833Z" fill="white"/>
</svg>
