<svg width="15" height="16" viewBox="0 0 15 16" fill="none" xmlns="http://www.w3.org/2000/svg">
<path d="M9.39758 0.550964H6.31693C3.3441 0.550964 0.925781 2.90141 0.925781 5.79081V8.03646C0.925781 10.0669 2.12916 11.9065 4.00644 12.7729V15.2749C4.00644 15.492 4.28562 15.6043 4.4435 15.4508L6.68083 13.2782H9.39758C12.3704 13.2782 14.7887 10.9277 14.7887 8.03646V5.79081C14.7887 2.90141 12.3704 0.550964 9.39758 0.550964ZM11.4154 10.3721L10.6356 11.1132C9.8154 11.8935 7.67434 11.0028 5.78744 9.12953C3.90054 7.25441 3.07261 5.15473 3.8524 4.37437L4.63219 3.6333C4.91908 3.36008 5.40621 3.3657 5.72775 3.64453L6.85219 4.76174C7.25268 5.16034 7.08324 5.82842 6.55375 5.98188C6.18793 6.09603 5.93955 6.48715 6.057 6.84271C6.25146 7.6736 7.33547 8.71221 8.14414 8.91806C8.50804 9.0004 8.91623 8.80765 9.04331 8.45396C9.21082 7.94308 9.90204 7.7915 10.3045 8.19197L11.427 9.30731C11.7081 9.58596 11.7042 10.0596 11.4154 10.3721ZM8.5581 4.10657C8.48109 4.10657 8.40407 4.11032 8.32898 4.11967C8.18843 4.13464 8.06135 4.03546 8.04595 3.89885C8.03054 3.76224 8.13259 3.63873 8.27314 3.62376C8.36749 3.61253 8.46376 3.60879 8.5581 3.60879C9.97328 3.60879 11.1247 4.72787 11.1247 6.10333C11.1247 6.19503 11.1208 6.2886 11.1093 6.38029C11.0939 6.51503 10.9649 6.61609 10.8262 6.60112C10.6876 6.58614 10.5836 6.46076 10.599 6.32602C10.6067 6.25304 10.6125 6.17818 10.6125 6.10333C10.6125 5.00296 9.69025 4.10657 8.5581 4.10657ZM10.0984 6.10333C10.0984 6.23994 9.98098 6.35222 9.84043 6.35222C9.7018 6.35222 9.58435 6.23994 9.58435 6.10333C9.58435 5.55315 9.12418 5.10589 8.5581 5.10589C8.41562 5.10589 8.3001 4.99361 8.3001 4.85512C8.3001 4.71851 8.41562 4.60623 8.5581 4.60623C9.40721 4.60623 10.0984 5.27805 10.0984 6.10333ZM12.0566 6.90989C12.0238 7.04463 11.8756 7.12884 11.7389 7.09329C11.606 7.05773 11.5252 6.92299 11.556 6.79387C11.6118 6.5693 11.6388 6.33725 11.6388 6.10333C11.6388 4.45278 10.2563 3.10913 8.5581 3.10913C8.47916 3.10913 8.3983 3.111 8.31935 3.11849C8.1788 3.12785 8.05557 3.02492 8.04402 2.88831C8.03439 2.74983 8.14029 2.63006 8.28085 2.6207C8.37327 2.61322 8.46568 2.60948 8.5581 2.60948C10.5394 2.60948 12.1528 4.17769 12.1528 6.10333C12.1528 6.37468 12.1201 6.64603 12.0566 6.90989Z" fill="#665CAC"/>
</svg>
