<svg width="27" height="27" viewBox="0 0 27 27" fill="none" xmlns="http://www.w3.org/2000/svg">
<path d="M15.6603 2.69995H11.3403C7.17147 2.69995 3.78027 6.09115 3.78027 10.26V13.5C3.78027 16.4295 5.46777 19.0836 8.10027 20.3337V23.9436C8.10027 24.2568 8.49177 24.4188 8.71317 24.1974L11.8506 21.0627H15.6603C19.8291 21.0627 23.2203 17.6715 23.2203 13.5V10.26C23.2203 6.09115 19.8291 2.69995 15.6603 2.69995ZM18.4899 16.8698L17.3964 17.939C16.2462 19.0649 13.2438 17.7797 10.5978 15.077C7.95177 12.3716 6.79077 9.34222 7.88427 8.21632L8.97777 7.14712C9.38007 6.75292 10.0632 6.76102 10.5141 7.16332L12.0909 8.77522C12.6525 9.35032 12.4149 10.3142 11.6724 10.5356C11.1594 10.7003 10.8111 11.2646 10.9758 11.7776C11.2485 12.9764 12.7686 14.4749 13.9026 14.7719C14.4129 14.8907 14.9853 14.6126 15.1635 14.1023C15.3984 13.3652 16.3677 13.1465 16.932 13.7243L18.5061 15.3335C18.9003 15.7356 18.8949 16.4189 18.4899 16.8698ZM14.4831 7.82995C14.3751 7.82995 14.2671 7.83535 14.1618 7.84885C13.9647 7.87045 13.7865 7.72735 13.7649 7.53025C13.7433 7.33315 13.8864 7.15495 14.0835 7.13335C14.2158 7.11715 14.3508 7.11175 14.4831 7.11175C16.4676 7.11175 18.0822 8.72635 18.0822 10.7109C18.0822 10.8432 18.0768 10.9782 18.0606 11.1105C18.039 11.3049 17.8581 11.4507 17.6637 11.4291C17.4693 11.4075 17.3235 11.2266 17.3451 11.0322C17.3559 10.9269 17.364 10.8189 17.364 10.7109C17.364 9.12325 16.0707 7.82995 14.4831 7.82995ZM16.6431 10.7109C16.6431 10.908 16.4784 11.07 16.2813 11.07C16.0869 11.07 15.9222 10.908 15.9222 10.7109C15.9222 9.91705 15.2769 9.27175 14.4831 9.27175C14.2833 9.27175 14.1213 9.10975 14.1213 8.90995C14.1213 8.71285 14.2833 8.55085 14.4831 8.55085C15.6738 8.55085 16.6431 9.52015 16.6431 10.7109ZM19.389 11.8746C19.3431 12.069 19.1352 12.1905 18.9435 12.1392C18.7572 12.0879 18.6438 11.8935 18.687 11.7072C18.7653 11.3832 18.8031 11.0484 18.8031 10.7109C18.8031 8.32945 16.8645 6.39085 14.4831 6.39085C14.3724 6.39085 14.259 6.39355 14.1483 6.40435C13.9512 6.41785 13.7784 6.26935 13.7622 6.07225C13.7487 5.87245 13.8972 5.69965 14.0943 5.68615C14.2239 5.67535 14.3535 5.66995 14.4831 5.66995C17.2614 5.66995 19.524 7.93255 19.524 10.7109C19.524 11.1024 19.4781 11.4939 19.389 11.8746Z" fill="#665CAC"/>
</svg>
