<svg width="21" height="22" viewBox="0 0 21 22" fill="none" xmlns="http://www.w3.org/2000/svg">
<g clip-path="url(#clip0_113_700)">
<path d="M10.5021 0.998779H10.4969C4.70745 0.998779 -0.000488281 5.70803 -0.000488281 11.4988C-0.000488281 13.7957 0.739762 15.9245 1.99845 17.6531L0.689887 21.5538L4.72582 20.2637C6.38614 21.3635 8.3667 21.9988 10.5021 21.9988C16.2916 21.9988 20.9995 17.2882 20.9995 11.4988C20.9995 5.70934 16.2916 0.998779 10.5021 0.998779Z" fill="#5F41E1"/>
<path d="M16.6117 15.8261C16.3584 16.5414 15.353 17.1347 14.5511 17.3079C14.0025 17.4248 13.2859 17.5179 10.8735 16.5178C7.7878 15.2394 5.80067 12.1039 5.6458 11.9004C5.49749 11.697 4.39893 10.2401 4.39893 8.73339C4.39893 7.22664 5.16411 6.49296 5.47255 6.17796C5.72586 5.91939 6.14455 5.80127 6.54617 5.80127C6.67611 5.80127 6.79292 5.80783 6.89792 5.81308C7.20636 5.82621 7.36124 5.84458 7.56467 6.33152C7.81799 6.94183 8.43486 8.44858 8.50836 8.60345C8.58317 8.75833 8.65799 8.96833 8.55299 9.17177C8.45455 9.38177 8.36792 9.47495 8.21305 9.65345C8.05817 9.83195 7.91117 9.96845 7.7563 10.1601C7.61455 10.3268 7.45442 10.5053 7.63292 10.8137C7.81142 11.1156 8.4283 12.1223 9.33655 12.9308C10.5086 13.9742 11.4589 14.3076 11.7988 14.4493C12.0521 14.5543 12.354 14.5294 12.539 14.3325C12.774 14.0792 13.064 13.6592 13.3594 13.2458C13.5694 12.9491 13.8345 12.9124 14.1127 13.0174C14.3962 13.1158 15.8964 13.8574 16.2049 14.0109C16.5133 14.1658 16.7167 14.2393 16.7915 14.3693C16.865 14.4992 16.865 15.1095 16.6117 15.8261Z" fill="#FAFAFA"/>
</g>
<defs>
<clipPath id="clip0_113_700">
<rect width="21" height="21" fill="white" transform="translate(-0.000488281 0.998779)"/>
</clipPath>
</defs>
</svg>
