<svg width="21" height="21" viewBox="0 0 21 21" fill="none" xmlns="http://www.w3.org/2000/svg">
<path d="M10.2867 4.9478e-06C4.60581 0.00121035 0.00153485 4.60745 0.00274025 10.2883C0.00314205 12.2554 0.567632 14.1811 1.62919 15.8372L0.0288573 19.9893C-0.0563646 20.2102 0.0535681 20.4583 0.274398 20.5435C0.323779 20.5626 0.376214 20.5723 0.429131 20.5722C0.478231 20.5725 0.52697 20.5641 0.573137 20.5474L4.85902 19.0173C9.68112 22.0206 16.0248 20.5461 19.028 15.724C22.0313 10.9018 20.5568 4.55815 15.7347 1.55493C14.1001 0.536851 12.2125 -0.00188352 10.2867 4.9478e-06Z" fill="#4CAF50"/>
<path d="M15.1906 12.0439C15.1906 12.0439 14.1406 11.5296 13.4831 11.1867C12.7391 10.8036 11.8648 11.521 11.4533 11.9291C10.813 11.6831 10.2281 11.3118 9.73298 10.837C9.25809 10.342 8.88683 9.7571 8.64093 9.11667C9.04895 8.70438 9.76468 7.83091 9.38325 7.08689C9.04466 6.42858 8.52609 5.3794 8.52609 5.37856C8.45333 5.23415 8.3055 5.14298 8.14378 5.14282H7.28662C6.0383 5.35843 5.13067 6.44763 5.14369 7.71435C5.14369 9.0601 6.75431 11.6454 7.84038 12.7322C8.92645 13.8191 11.5117 15.4289 12.8583 15.4289C14.125 15.4419 15.2142 14.5343 15.4298 13.286V12.4288C15.4299 12.2654 15.3372 12.1161 15.1906 12.0439Z" fill="#FAFAFA"/>
</svg>
