<svg width="16" height="15" viewBox="0 0 16 15" fill="none" xmlns="http://www.w3.org/2000/svg">
<path d="M7.75354 0.550968C3.70244 0.551803 0.419063 3.7444 0.419923 7.68181C0.420209 9.0452 0.822755 10.3799 1.57977 11.5277L0.438547 14.4056C0.377774 14.5587 0.456169 14.7306 0.613646 14.7897C0.64886 14.8029 0.686253 14.8097 0.723989 14.8096C0.759003 14.8098 0.793759 14.804 0.826681 14.7924L3.88301 13.7319C7.32171 15.8135 11.8455 14.7915 13.9871 11.4493C16.1288 8.10703 15.0773 3.71023 11.6386 1.62869C10.4729 0.923056 9.12685 0.549659 7.75354 0.550968Z" fill="#4CAF50"/>
<path d="M11.2506 8.89862C11.2506 8.89862 10.5018 8.54215 10.033 8.30452C9.50243 8.03895 8.87894 8.53622 8.58553 8.81902C8.12889 8.64853 7.71182 8.39121 7.35872 8.06212C7.02007 7.71899 6.75532 7.31363 6.57996 6.86974C6.87094 6.58399 7.38133 5.97858 7.10933 5.4629C6.86787 5.00663 6.49807 4.27944 6.49807 4.27885C6.44618 4.17876 6.34077 4.11557 6.22544 4.11546H5.61419C4.724 4.2649 4.07675 5.01983 4.08604 5.89779C4.08604 6.83053 5.23459 8.62238 6.00908 9.37569C6.78357 10.129 8.62714 11.2448 9.58741 11.2448C10.4907 11.2538 11.2675 10.6247 11.4212 9.75951V9.16541C11.4213 9.05212 11.3552 8.94866 11.2506 8.89862Z" fill="#FAFAFA"/>
</svg>
