<svg width="22" height="22" viewBox="0 0 22 22" fill="none" xmlns="http://www.w3.org/2000/svg">
<g clip-path="url(#clip0_139_1194)">
<path d="M0.478019 16.3845C0.927186 17.9777 2.30127 18.2692 2.39294 18.3251C4.65435 18.9411 17.33 18.9429 19.6254 18.3251C21.1974 17.8704 21.4862 16.4762 21.5403 16.3845C22.1389 13.2 22.1783 9.04843 21.5128 5.43493L21.5403 5.61459C21.0911 4.02143 19.717 3.72993 19.6254 3.67401C17.3942 3.06809 4.68552 3.04518 2.39294 3.67401C0.820852 4.12959 0.532102 5.52293 0.478019 5.61459C-0.162731 8.96134 -0.194815 12.8013 0.478019 16.3845ZM8.80685 14.3468V7.66151L14.5507 11.0092L8.80685 14.3468Z" fill="#E53935"/>
</g>
<defs>
<clipPath id="clip0_139_1194">
<rect width="22" height="22" fill="white"/>
</clipPath>
</defs>
</svg>
